<?xml version="1.0" encoding="UTF-8"?>
<svg xmlns="http://www.w3.org/2000/svg" xmlns:xlink="http://www.w3.org/1999/xlink" width="2300" height="2300" viewBox="0 0 2300 2300">
<rect x="-230" y="-230" width="2760" height="2760" fill="rgb(100%, 100%, 100%)" fill-opacity="1"/>
<path fill-rule="evenodd" fill="rgb(0%, 0%, 0%)" fill-opacity="1" d="M 1582.140625 451.160156 C 1578.730469 449.558594 1575.210938 449.179688 1571.359375 450.628906 C 1549.03125 459.050781 1497.929688 444.359375 1495.691406 408.339844 C 1493 364.878906 1533.210938 309.480469 1572.230469 292.339844 C 1590.609375 284.261719 1611.300781 284.019531 1629.640625 275.949219 C 1643.261719 269.960938 1651.078125 258.449219 1659.058594 246.488281 C 1659.570312 245.730469 1664.449219 237.410156 1665.621094 238.050781 C 1666.480469 238.53125 1665.039062 243.101562 1664.890625 243.738281 C 1660.96875 260.289062 1656.589844 277.429688 1661.511719 294.28125 C 1667.769531 315.710938 1685.871094 331.128906 1694.28125 351.839844 C 1706.171875 381.160156 1704.429688 457.46875 1673.558594 475.140625 C 1626.011719 502.371094 1607.121094 472.019531 1590.53125 457.078125 L 1591.558594 455.449219 L 1591.578125 455.410156 C 1594.558594 456.230469 1598.230469 456.210938 1600.171875 456.359375 C 1614.589844 457.519531 1630.371094 457.921875 1644.78125 456.75 C 1646.980469 456.570312 1659.371094 456.160156 1660.019531 452.859375 C 1660.300781 451.460938 1650.941406 450.808594 1650.191406 450.761719 C 1638.601562 449.988281 1626.941406 450.578125 1615.328125 450 C 1609.640625 449.710938 1603.96875 449.269531 1598.28125 449.121094 L 1594.460938 449.101562 C 1595.808594 445.46875 1596.691406 442 1597.109375 440.078125 L 1598.191406 435.328125 C 1607.941406 436 1627.710938 433.421875 1631.71875 433.058594 C 1638.539062 432.460938 1646.578125 431.910156 1652.960938 429.199219 C 1653.308594 429.050781 1654.988281 428.390625 1654.671875 427.691406 C 1653.808594 425.800781 1646.980469 426.109375 1645.449219 426.03125 C 1634.589844 425.53125 1623.621094 426.890625 1612.820312 427.96875 C 1608.621094 428.378906 1604.398438 428.648438 1600.210938 429.191406 L 1599.628906 429.261719 L 1600.210938 426.878906 L 1602.851562 416.808594 C 1605.539062 417.28125 1610.019531 415.78125 1611.390625 415.359375 C 1623.269531 411.671875 1635.230469 408.011719 1647 403.988281 C 1648.550781 403.460938 1658.308594 401.128906 1658.488281 398.941406 C 1658.621094 397.320312 1648.921875 398.648438 1648.199219 398.761719 C 1637.460938 400.320312 1626.308594 402.589844 1615.871094 405.550781 C 1612.261719 406.570312 1608.648438 407.621094 1605.070312 408.769531 L 1607.359375 400.738281 L 1610.328125 391.058594 C 1616.359375 391.488281 1634.679688 382.738281 1639.039062 380.769531 C 1640.230469 380.230469 1648.019531 377.511719 1647.921875 375.671875 C 1647.851562 374.359375 1641 375.71875 1640.460938 375.820312 C 1632.839844 377.171875 1625.238281 379.171875 1617.929688 381.710938 C 1617.109375 382 1614.691406 383.089844 1612.519531 384.109375 L 1615.488281 374.878906 L 1618.859375 364.859375 C 1623.820312 365.539062 1650.851562 350.269531 1650.929688 348.269531 C 1650.960938 347.738281 1649.03125 348.351562 1648.988281 348.359375 C 1640.738281 350.601562 1632.871094 354.671875 1625.171875 358.289062 C 1624.558594 358.578125 1621.78125 360.269531 1620.171875 361.019531 L 1628.738281 336.421875 C 1632.140625 326.789062 1636.070312 317.300781 1638.921875 307.480469 C 1639.179688 306.578125 1641.488281 299.710938 1639.820312 299.070312 C 1637.089844 298.019531 1628.398438 319.390625 1626.351562 324.941406 C 1623.359375 333.058594 1620.511719 341.21875 1617.730469 349.410156 C 1616.898438 348.269531 1615.21875 344.359375 1614.828125 343.679688 C 1610.640625 336.269531 1606.570312 328.390625 1601.128906 321.800781 C 1601.109375 321.769531 1599.878906 320.160156 1599.601562 320.609375 C 1598.488281 322.320312 1612.238281 351.421875 1616.410156 352.800781 L 1617.019531 351.539062 L 1611.199219 368.839844 L 1610.171875 371.929688 C 1609 369.890625 1607.699219 367.671875 1607.210938 366.96875 C 1602.710938 360.671875 1597.660156 354.660156 1592.21875 349.140625 C 1591.839844 348.75 1587.039062 343.679688 1586.21875 344.710938 C 1585.078125 346.160156 1589.859375 352.878906 1590.519531 354.011719 C 1592.910156 358.078125 1602.621094 375.480469 1607.839844 378.878906 L 1603.839844 390.851562 L 1601.949219 396.339844 C 1599.730469 393.390625 1597.429688 390.488281 1595.109375 387.621094 C 1588.289062 379.171875 1580.511719 370.878906 1572.648438 363.390625 C 1572.121094 362.890625 1564.96875 356.199219 1564.140625 357.601562 C 1563.03125 359.488281 1569.648438 367.03125 1570.609375 368.351562 C 1577.890625 378.441406 1585.53125 388.339844 1593.101562 398.210938 C 1593.960938 399.339844 1596.71875 403.109375 1599.191406 404.300781 L 1596.179688 412.769531 L 1594.828125 416.511719 L 1594.21875 415.960938 C 1591.121094 413.101562 1587.828125 410.441406 1584.640625 407.671875 C 1576.449219 400.558594 1568.289062 393.109375 1559.128906 387.238281 C 1557.839844 386.421875 1552.441406 382.21875 1550.648438 383.261719 C 1549.980469 383.648438 1550.96875 385.160156 1551.171875 385.480469 C 1554.808594 391.378906 1561.058594 396.480469 1566.269531 400.910156 C 1569.390625 403.570312 1584.46875 417.488281 1592.71875 422.378906 L 1587.878906 435.859375 L 1584.289062 433.339844 C 1579.558594 430.179688 1574.671875 427.261719 1569.871094 424.210938 C 1560.050781 417.96875 1550.878906 410.75 1540.96875 404.679688 C 1540.339844 404.289062 1532.320312 399.410156 1531.738281 400.710938 C 1530.359375 403.78125 1540.238281 411.28125 1541.929688 412.691406 C 1553.011719 421.980469 1566.121094 430.769531 1578.558594 438.160156 C 1580.140625 439.101562 1582.878906 441.050781 1585.621094 442.148438 L 1585.308594 443.03125 C 1584.320312 445.769531 1583.289062 448.488281 1582.140625 451.160156 "/>
<path fill-rule="evenodd" fill="rgb(0%, 0%, 0%)" fill-opacity="1" d="M 691.835938 444.898438 C 688.804688 447.148438 686.789062 450.058594 686.234375 454.128906 C 683.011719 477.78125 645.769531 515.730469 613.027344 500.550781 C 573.53125 482.230469 543.941406 420.5 547.4375 378.03125 C 549.085938 358.019531 558.71875 339.710938 560.351562 319.738281 C 561.566406 304.910156 555.164062 292.558594 548.445312 279.828125 C 548.019531 279.03125 543.019531 270.78125 544.144531 270.058594 C 544.972656 269.519531 548.3125 272.960938 548.800781 273.398438 C 561.492188 284.730469 574.476562 296.730469 591.644531 300.429688 C 613.46875 305.128906 635.640625 296.539062 657.863281 299.011719 C 689.308594 302.5 755.585938 340.359375 756.4375 375.921875 C 757.75 430.691406 722.074219 432.871094 701.035156 440.339844 L 700.089844 438.660156 L 700.066406 438.628906 C 702.199219 436.398438 703.929688 433.160156 704.988281 431.519531 C 712.871094 419.390625 720.734375 405.699219 726.5625 392.46875 C 727.449219 390.449219 732.988281 379.359375 730.398438 377.210938 C 729.296875 376.300781 724.269531 384.230469 723.871094 384.859375 C 717.675781 394.691406 712.652344 405.230469 706.609375 415.160156 C 703.648438 420.019531 700.5625 424.808594 697.71875 429.738281 L 695.886719 433.089844 C 693.335938 430.171875 690.703125 427.75 689.21875 426.460938 L 685.554688 423.25 C 690.777344 415 697.921875 396.390625 699.519531 392.691406 C 702.230469 386.398438 705.574219 379.070312 706.230469 372.160156 C 706.265625 371.78125 706.484375 370 705.710938 369.941406 C 703.644531 369.800781 700.660156 375.960938 699.871094 377.261719 C 694.253906 386.578125 690.238281 396.871094 686.039062 406.878906 C 684.40625 410.769531 682.632812 414.609375 681.117188 418.550781 L 680.902344 419.089844 L 679.082031 417.460938 L 671.476562 410.339844 C 673.179688 408.199219 673.988281 403.539062 674.265625 402.140625 C 676.683594 389.941406 679.152344 377.679688 681.21875 365.410156 C 681.488281 363.800781 684.089844 354.101562 682.25 352.898438 C 680.890625 352.011719 677.441406 361.179688 677.191406 361.859375 C 673.453125 372.058594 670.148438 382.941406 667.773438 393.53125 C 666.953125 397.191406 666.160156 400.871094 665.464844 404.558594 L 659.5 398.71875 L 652.394531 391.511719 C 655.644531 386.410156 656.667969 366.128906 657.007812 361.359375 C 657.101562 360.058594 658.417969 351.910156 656.757812 351.121094 C 655.566406 350.558594 653.503906 357.230469 653.332031 357.75 C 650.898438 365.101562 649.035156 372.730469 647.789062 380.371094 C 647.652344 381.230469 647.464844 383.878906 647.320312 386.269531 L 640.625 379.261719 L 633.417969 371.53125 C 636.371094 367.5 635.808594 336.460938 634.089844 335.429688 C 633.632812 335.160156 633.25 337.140625 633.238281 337.179688 C 631.285156 345.5 631.121094 354.359375 630.636719 362.859375 C 630.601562 363.53125 630.765625 366.78125 630.660156 368.558594 L 613.109375 349.308594 C 606.257812 341.730469 599.773438 333.761719 592.5 326.578125 C 591.835938 325.921875 586.890625 320.621094 585.53125 321.78125 C 583.304688 323.691406 597.964844 341.5 601.875 345.949219 C 607.585938 352.441406 613.40625 358.828125 619.285156 365.171875 C 617.894531 365.371094 613.648438 364.980469 612.867188 364.988281 C 604.359375 365.160156 595.492188 364.988281 587.109375 366.628906 C 587.070312 366.640625 585.070312 366.949219 585.324219 367.410156 C 586.308594 369.199219 618.441406 370.960938 621.636719 367.949219 L 620.820312 366.808594 L 633.269531 380.160156 L 635.496094 382.539062 C 633.140625 382.601562 630.570312 382.691406 629.726562 382.789062 C 622.042969 383.75 614.347656 385.320312 606.910156 387.480469 C 606.386719 387.628906 599.640625 389.441406 600.160156 390.648438 C 600.882812 392.339844 609.074219 391.328125 610.378906 391.289062 C 615.105469 391.128906 635.027344 390.871094 640.5 387.890625 L 649.125 397.121094 L 653.050781 401.390625 C 649.398438 401.941406 645.757812 402.578125 642.125 403.25 C 631.449219 405.230469 620.453125 408.121094 610.128906 411.46875 C 609.433594 411.699219 600.148438 414.800781 600.984375 416.199219 C 602.113281 418.078125 611.898438 415.839844 613.519531 415.628906 C 625.855469 414.03125 638.199219 412.019531 650.484375 410.058594 C 651.886719 409.839844 656.515625 409.210938 658.734375 407.609375 L 664.746094 414.289062 L 667.402344 417.25 L 666.628906 417.519531 C 662.636719 418.890625 658.730469 420.519531 654.78125 422.011719 C 644.625 425.820312 634.183594 429.449219 624.664062 434.71875 C 623.332031 435.449219 617.066406 438.210938 617.132812 440.28125 C 617.15625 441.050781 618.949219 440.898438 619.332031 440.878906 C 626.257812 440.480469 633.703125 437.421875 640.089844 434.941406 C 643.910156 433.460938 663.332031 426.828125 671.5625 421.898438 L 681.109375 432.570312 L 677.183594 434.53125 C 672.148438 437.191406 667.253906 440.101562 662.285156 442.871094 C 652.132812 448.539062 641.417969 453.160156 631.363281 458.988281 C 630.714844 459.359375 622.605469 464.089844 623.472656 465.21875 C 625.523438 467.890625 636.816406 462.769531 638.863281 461.960938 C 652.304688 456.628906 666.273438 449.289062 678.695312 441.859375 C 680.273438 440.921875 683.296875 439.441406 685.570312 437.558594 L 686.191406 438.25 C 688.128906 440.421875 690.035156 442.621094 691.835938 444.898438 "/>
<path fill-rule="evenodd" fill="rgb(0%, 0%, 0%)" fill-opacity="1" d="M 1932.121094 790.308594 C 1933.398438 786.769531 1933.460938 783.230469 1931.660156 779.53125 C 1921.230469 758.058594 1931.179688 705.828125 1966.851562 700.308594 C 2009.871094 693.648438 2068.71875 728.609375 2089.371094 765.898438 C 2099.089844 783.46875 2101.230469 804.039062 2110.941406 821.570312 C 2118.160156 834.578125 2130.328125 841.308594 2142.980469 848.171875 C 2143.78125 848.601562 2152.511719 852.699219 2151.980469 853.929688 C 2151.578125 854.828125 2146.898438 853.820312 2146.25 853.730469 C 2129.410156 851.328125 2111.941406 848.539062 2095.609375 854.988281 C 2074.839844 863.179688 2061.148438 882.621094 2041.289062 892.878906 C 2013.179688 907.421875 1937.039062 912.660156 1916.609375 883.539062 C 1885.140625 838.691406 1913.628906 817.101562 1926.988281 799.210938 L 1928.710938 800.078125 L 1928.75 800.101562 C 1928.210938 803.140625 1928.570312 806.789062 1928.589844 808.738281 C 1928.761719 823.210938 1929.808594 838.960938 1932.289062 853.199219 C 1932.671875 855.371094 1934.210938 867.671875 1937.558594 868.019531 C 1938.980469 868.171875 1938.769531 858.789062 1938.75 858.039062 C 1938.460938 846.421875 1936.800781 834.871094 1936.320312 823.261719 C 1936.078125 817.570312 1936 811.878906 1935.628906 806.199219 L 1935.300781 802.390625 C 1939.039062 803.398438 1942.578125 803.960938 1944.519531 804.210938 L 1949.351562 804.851562 C 1949.578125 814.609375 1953.960938 834.058594 1954.679688 838.03125 C 1955.910156 844.769531 1957.191406 852.71875 1960.480469 858.828125 C 1960.660156 859.160156 1961.460938 860.769531 1962.140625 860.390625 C 1963.941406 859.359375 1963.011719 852.578125 1962.941406 851.058594 C 1962.449219 840.191406 1960.078125 829.398438 1958.03125 818.738281 C 1957.230469 814.601562 1956.578125 810.421875 1955.648438 806.300781 L 1955.53125 805.730469 L 1957.949219 806.078125 L 1968.230469 807.789062 C 1968 810.519531 1969.910156 814.839844 1970.449219 816.160156 C 1975.210938 827.648438 1979.949219 839.230469 1985.03125 850.578125 C 1985.699219 852.070312 1988.910156 861.578125 1991.109375 861.558594 C 1992.738281 861.539062 1990.519531 852.011719 1990.351562 851.300781 C 1987.808594 840.738281 1984.53125 829.851562 1980.628906 819.71875 C 1979.28125 816.21875 1977.898438 812.71875 1976.429688 809.269531 L 1984.628906 810.808594 L 1994.550781 812.878906 C 1994.671875 818.921875 2005.070312 836.371094 2007.429688 840.53125 C 2008.070312 841.660156 2011.488281 849.171875 2013.308594 848.910156 C 2014.621094 848.71875 2012.628906 842.019531 2012.488281 841.488281 C 2010.441406 834.03125 2007.761719 826.640625 2004.550781 819.589844 C 2004.191406 818.800781 2002.878906 816.488281 2001.671875 814.421875 L 2011.128906 816.539062 L 2021.421875 818.980469 C 2021.191406 823.96875 2038.878906 849.5 2040.878906 849.398438 C 2041.410156 849.371094 2040.628906 847.511719 2040.609375 847.46875 C 2037.628906 839.460938 2032.851562 831.988281 2028.539062 824.660156 C 2028.199219 824.078125 2026.261719 821.460938 2025.359375 819.929688 L 2050.640625 826.210938 C 2060.539062 828.71875 2070.359375 831.761719 2080.390625 833.699219 C 2081.308594 833.878906 2088.371094 835.550781 2088.851562 833.828125 C 2089.648438 831.011719 2067.570312 824.308594 2061.851562 822.78125 C 2053.5 820.539062 2045.109375 818.449219 2036.699219 816.441406 C 2037.761719 815.5 2041.5 813.46875 2042.140625 813.03125 C 2049.128906 808.171875 2056.609375 803.398438 2062.671875 797.378906 C 2062.699219 797.351562 2064.191406 795.988281 2063.71875 795.738281 C 2061.910156 794.789062 2034.199219 811.148438 2033.210938 815.429688 L 2034.519531 815.921875 L 2016.761719 811.71875 L 2013.578125 810.96875 C 2015.511719 809.621094 2017.601562 808.121094 2018.25 807.558594 C 2024.109375 802.511719 2029.640625 796.929688 2034.628906 791.011719 C 2034.988281 790.589844 2039.589844 785.351562 2038.488281 784.628906 C 2036.949219 783.621094 2030.691406 789.011719 2029.640625 789.761719 C 2025.789062 792.519531 2009.359375 803.78125 2006.449219 809.289062 L 1994.160156 806.398438 L 1988.519531 805.019531 C 1991.261719 802.539062 1993.929688 799.988281 1996.578125 797.410156 C 2004.371094 789.851562 2011.921875 781.339844 2018.648438 772.828125 C 2019.101562 772.25 2025.109375 764.519531 2023.640625 763.828125 C 2021.660156 762.890625 2014.761719 770.171875 2013.519531 771.25 C 2004.148438 779.421875 1994.988281 787.941406 1985.851562 796.378906 C 1984.808594 797.339844 1981.300781 800.429688 1980.339844 803 L 1971.640625 800.769531 L 1967.789062 799.78125 L 1968.28125 799.121094 C 1970.839844 795.769531 1973.191406 792.25 1975.648438 788.820312 C 1981.988281 780.011719 1988.660156 771.199219 1993.671875 761.539062 C 1994.371094 760.191406 1998.050781 754.421875 1996.851562 752.738281 C 1996.398438 752.109375 1994.988281 753.230469 1994.691406 753.460938 C 1989.140625 757.628906 1984.640625 764.308594 1980.699219 769.910156 C 1978.351562 773.261719 1965.859375 789.550781 1961.738281 798.210938 L 1947.878906 794.628906 L 1950.058594 790.820312 C 1952.78125 785.820312 1955.238281 780.691406 1957.839844 775.621094 C 1963.140625 765.269531 1969.5 755.488281 1974.640625 745.058594 C 1974.96875 744.390625 1979.101562 735.960938 1977.738281 735.5 C 1974.558594 734.421875 1968 744.941406 1966.738281 746.75 C 1958.511719 758.628906 1950.960938 772.488281 1944.738281 785.558594 C 1943.949219 787.210938 1942.25 790.121094 1941.410156 792.949219 L 1940.5 792.71875 C 1937.691406 791.988281 1934.878906 791.21875 1932.121094 790.308594 "/>
<path fill-rule="evenodd" fill="rgb(0%, 0%, 0%)" fill-opacity="1" d="M 343.183594 772.640625 C 345.015625 775.929688 347.644531 778.308594 351.609375 779.390625 C 374.640625 785.640625 407.457031 827.480469 388.167969 857.980469 C 364.894531 894.78125 299.859375 916.128906 258.191406 907.171875 C 238.5625 902.949219 221.652344 891.03125 202.0625 886.828125 C 187.511719 883.699219 174.4375 888.449219 160.953125 893.46875 C 160.105469 893.789062 151.273438 897.679688 150.699219 896.46875 C 150.28125 895.578125 154.121094 892.710938 154.617188 892.289062 C 167.496094 881.171875 181.078125 869.839844 186.964844 853.300781 C 194.445312 832.269531 188.804688 809.171875 194.125 787.460938 C 201.652344 756.71875 247.765625 695.898438 283.136719 699.660156 C 337.621094 705.441406 335.160156 741.101562 339.851562 762.929688 L 338.066406 763.648438 L 338.027344 763.660156 C 336.089844 761.261719 333.101562 759.128906 331.617188 757.859375 C 320.601562 748.480469 308.050781 738.910156 295.683594 731.421875 C 293.800781 730.28125 283.519531 723.351562 281.054688 725.648438 C 280.007812 726.621094 287.21875 732.628906 287.792969 733.101562 C 296.738281 740.519531 306.535156 746.859375 315.605469 754.140625 C 320.042969 757.710938 324.386719 761.378906 328.90625 764.839844 L 331.996094 767.089844 C 328.773438 769.25 326.023438 771.539062 324.558594 772.851562 L 320.902344 776.070312 C 313.394531 769.820312 295.859375 760.328125 292.398438 758.269531 C 286.515625 754.761719 279.679688 750.5 272.917969 748.960938 C 272.546875 748.871094 270.804688 748.421875 270.648438 749.179688 C 270.238281 751.210938 275.960938 754.96875 277.152344 755.921875 C 285.660156 762.699219 295.351562 768.011719 304.730469 773.46875 C 308.378906 775.589844 311.957031 777.851562 315.667969 779.859375 L 316.179688 780.140625 L 314.316406 781.730469 L 306.277344 788.359375 C 304.371094 786.390625 299.859375 784.980469 298.507812 784.53125 C 286.71875 780.558594 274.878906 776.519531 262.984375 772.878906 C 261.421875 772.410156 252.144531 768.570312 250.71875 770.238281 C 249.660156 771.480469 258.300781 776.078125 258.949219 776.421875 C 268.570312 781.441406 278.933594 786.128906 289.132812 789.851562 C 292.65625 791.140625 296.199219 792.398438 299.765625 793.570312 L 293.210938 798.730469 L 285.136719 804.839844 C 280.503906 800.960938 260.519531 797.320312 255.835938 796.359375 C 254.558594 796.109375 246.648438 793.738281 245.652344 795.289062 C 244.941406 796.398438 251.289062 799.308594 251.78125 799.550781 C 258.757812 802.910156 266.082031 805.738281 273.496094 807.96875 C 274.328125 808.210938 276.933594 808.738281 279.289062 809.199219 L 271.472656 814.929688 L 262.871094 821.078125 C 259.257812 817.621094 228.402344 814.171875 227.160156 815.738281 C 226.832031 816.160156 228.75 816.789062 228.789062 816.808594 C 236.78125 819.820312 245.550781 821.128906 253.914062 822.710938 C 254.574219 822.828125 257.816406 823.089844 259.566406 823.421875 L 238.207031 838.339844 C 229.808594 844.148438 221.0625 849.550781 213.003906 855.828125 C 212.269531 856.410156 206.371094 860.621094 207.347656 862.121094 C 208.949219 864.578125 228.507812 852.351562 233.425781 849.039062 C 240.601562 844.21875 247.691406 839.28125 254.734375 834.261719 C 254.75 835.671875 253.816406 839.828125 253.730469 840.609375 C 252.792969 849.058594 251.480469 857.828125 252.023438 866.359375 C 252.023438 866.398438 252.070312 868.421875 252.566406 868.230469 C 254.46875 867.488281 260.367188 835.851562 257.796875 832.289062 L 256.5625 832.960938 L 271.410156 822.339844 L 274.058594 820.441406 C 273.8125 822.78125 273.5625 825.339844 273.558594 826.191406 C 273.515625 833.929688 274.082031 841.769531 275.257812 849.421875 C 275.339844 849.960938 276.265625 856.878906 277.53125 856.53125 C 279.300781 856.03125 279.359375 847.769531 279.484375 846.480469 C 279.9375 841.769531 282.257812 821.980469 280.011719 816.171875 L 290.273438 808.808594 L 295.015625 805.46875 C 295.089844 809.160156 295.257812 812.851562 295.453125 816.539062 C 296.027344 827.378906 297.480469 838.660156 299.46875 849.328125 C 299.601562 850.050781 301.476562 859.660156 302.964844 859.011719 C 304.980469 858.140625 304.027344 848.140625 304.027344 846.511719 C 304.03125 834.070312 303.636719 821.570312 303.289062 809.128906 C 303.246094 807.71875 303.222656 803.050781 301.921875 800.640625 L 309.320312 795.539062 L 312.605469 793.289062 L 312.773438 794.089844 C 313.609375 798.230469 314.722656 802.308594 315.6875 806.421875 C 318.15625 816.980469 320.40625 827.808594 324.394531 837.929688 C 324.953125 839.339844 326.875 845.910156 328.933594 846.121094 C 329.707031 846.191406 329.789062 844.390625 329.816406 844.011719 C 330.316406 837.089844 328.242188 829.308594 326.613281 822.660156 C 325.636719 818.679688 321.578125 798.558594 317.753906 789.769531 L 329.570312 781.679688 L 331.003906 785.828125 C 332.988281 791.160156 335.238281 796.390625 337.34375 801.679688 C 341.652344 812.480469 344.851562 823.699219 349.324219 834.429688 C 349.613281 835.109375 353.25 843.769531 354.488281 843.050781 C 357.398438 841.371094 353.785156 829.511719 353.242188 827.371094 C 349.703125 813.359375 344.222656 798.550781 338.472656 785.269531 C 337.742188 783.589844 336.664062 780.398438 335.085938 777.898438 L 335.859375 777.371094 C 338.261719 775.738281 340.683594 774.128906 343.183594 772.640625 "/>
<path fill-rule="evenodd" fill="rgb(0%, 0%, 0%)" fill-opacity="1" d="M 1901.988281 1124.570312 C 1905.648438 1125.5 1909.179688 1125.21875 1912.691406 1123.078125 C 1933.050781 1110.640625 1986 1115.53125 1994.921875 1150.5 C 2005.671875 1192.691406 1976.519531 1254.621094 1941.390625 1278.75 C 1924.828125 1290.109375 1904.558594 1294.21875 1888.050781 1305.566406 C 1875.78125 1313.996094 1870.25 1326.761719 1864.640625 1340.007812 C 1864.289062 1340.84375 1861.050781 1349.933594 1859.78125 1349.519531 C 1858.839844 1349.210938 1859.390625 1344.449219 1859.421875 1343.796875 C 1860.191406 1326.800781 1861.289062 1309.148438 1853.308594 1293.511719 C 1843.160156 1273.628906 1822.5 1261.859375 1810.371094 1243.078125 C 1793.210938 1216.5 1780.679688 1141.210938 1807.710938 1118.078125 C 1849.328125 1082.449219 1873.558594 1108.738281 1892.648438 1120.320312 L 1891.941406 1122.109375 L 1891.929688 1122.148438 C 1888.851562 1121.910156 1885.25 1122.621094 1883.308594 1122.828125 C 1868.929688 1124.390625 1853.351562 1126.941406 1839.410156 1130.78125 C 1837.289062 1131.359375 1825.191406 1134.078125 1825.160156 1137.441406 C 1825.148438 1138.871094 1834.46875 1137.761719 1835.210938 1137.671875 C 1846.75 1136.261719 1858.089844 1133.5 1869.609375 1131.910156 C 1875.238281 1131.128906 1880.898438 1130.5 1886.519531 1129.589844 L 1890.28125 1128.890625 C 1889.628906 1132.710938 1889.410156 1136.289062 1889.351562 1138.25 L 1889.179688 1143.121094 C 1879.480469 1144.28125 1860.539062 1150.511719 1856.660156 1151.609375 C 1850.078125 1153.46875 1842.28125 1155.511719 1836.519531 1159.371094 C 1836.199219 1159.578125 1834.679688 1160.539062 1835.121094 1161.171875 C 1836.320312 1162.871094 1842.980469 1161.289062 1844.488281 1161.078125 C 1855.261719 1159.550781 1865.78125 1156.148438 1876.179688 1153.078125 C 1880.230469 1151.890625 1884.328125 1150.839844 1888.339844 1149.53125 L 1888.898438 1149.351562 L 1888.78125 1151.789062 L 1888.058594 1162.191406 C 1885.328125 1162.21875 1881.210938 1164.539062 1879.949219 1165.210938 C 1868.960938 1171.039062 1857.898438 1176.878906 1847.078125 1183.019531 C 1845.660156 1183.828125 1836.511719 1187.941406 1836.738281 1190.121094 C 1836.910156 1191.738281 1846.191406 1188.621094 1846.878906 1188.378906 C 1857.140625 1184.839844 1867.671875 1180.53125 1877.378906 1175.679688 C 1880.730469 1174 1884.078125 1172.289062 1887.378906 1170.5 L 1886.628906 1178.808594 L 1885.53125 1188.878906 C 1879.519531 1189.578125 1863.148438 1201.601562 1859.238281 1204.351562 C 1858.171875 1205.101562 1851.019531 1209.21875 1851.460938 1211.011719 C 1851.78125 1212.289062 1858.25 1209.671875 1858.769531 1209.480469 C 1866 1206.71875 1873.089844 1203.339844 1879.800781 1199.480469 C 1880.550781 1199.050781 1882.730469 1197.519531 1884.671875 1196.121094 L 1883.46875 1205.738281 L 1882.03125 1216.210938 C 1877.039062 1216.460938 1853.328125 1236.511719 1853.621094 1238.5 C 1853.699219 1239.019531 1855.480469 1238.058594 1855.519531 1238.050781 C 1863.199219 1234.308594 1870.171875 1228.828125 1877.058594 1223.839844 C 1877.609375 1223.449219 1880.019531 1221.269531 1881.46875 1220.21875 L 1877.628906 1245.988281 C 1876.089844 1256.089844 1874.011719 1266.148438 1873.039062 1276.320312 C 1872.949219 1277.261719 1871.960938 1284.441406 1873.71875 1284.761719 C 1876.609375 1285.28125 1881.148438 1262.660156 1882.128906 1256.820312 C 1883.550781 1248.289062 1884.828125 1239.738281 1886.03125 1231.179688 C 1887.058594 1232.140625 1889.441406 1235.671875 1889.941406 1236.269531 C 1895.449219 1242.761719 1900.921875 1249.738281 1907.488281 1255.199219 C 1907.519531 1255.21875 1909.019531 1256.578125 1909.21875 1256.089844 C 1909.988281 1254.191406 1891.050781 1228.179688 1886.691406 1227.601562 L 1886.328125 1228.949219 L 1888.808594 1210.871094 L 1889.25 1207.640625 C 1890.78125 1209.429688 1892.46875 1211.371094 1893.089844 1211.960938 C 1898.691406 1217.308594 1904.769531 1222.28125 1911.140625 1226.679688 C 1911.589844 1226.988281 1917.25 1231.070312 1917.859375 1229.910156 C 1918.71875 1228.28125 1912.761719 1222.558594 1911.898438 1221.578125 C 1908.789062 1218.019531 1896 1202.738281 1890.238281 1200.378906 L 1891.941406 1187.871094 L 1892.769531 1182.128906 C 1895.5 1184.609375 1898.300781 1187.03125 1901.121094 1189.421875 C 1909.390625 1196.441406 1918.578125 1203.140625 1927.710938 1209.019531 C 1928.320312 1209.421875 1936.589844 1214.660156 1937.140625 1213.128906 C 1937.890625 1211.058594 1929.96875 1204.890625 1928.789062 1203.769531 C 1919.75 1195.21875 1910.390625 1186.921875 1901.109375 1178.628906 C 1900.058594 1177.691406 1896.640625 1174.5 1894 1173.789062 L 1895.378906 1164.910156 L 1896 1160.980469 L 1896.699219 1161.410156 C 1900.28125 1163.640625 1904.011719 1165.640625 1907.660156 1167.761719 C 1917.03125 1173.21875 1926.441406 1179.019531 1936.539062 1183.070312 C 1937.949219 1183.640625 1944.050781 1186.761719 1945.609375 1185.398438 C 1946.191406 1184.890625 1944.941406 1183.589844 1944.679688 1183.308594 C 1940 1178.191406 1932.921875 1174.359375 1926.96875 1170.96875 C 1923.398438 1168.949219 1905.988281 1158.078125 1896.96875 1154.820312 L 1899.210938 1140.671875 L 1903.210938 1142.480469 C 1908.449219 1144.699219 1913.800781 1146.660156 1919.089844 1148.761719 C 1929.890625 1153.050781 1940.25 1158.429688 1951.121094 1162.550781 C 1951.808594 1162.808594 1960.601562 1166.109375 1960.929688 1164.71875 C 1961.710938 1161.449219 1950.609375 1155.929688 1948.679688 1154.859375 C 1936.058594 1147.800781 1921.539062 1141.621094 1907.941406 1136.671875 C 1906.21875 1136.050781 1903.160156 1134.640625 1900.261719 1134.070312 L 1900.398438 1133.148438 C 1900.859375 1130.269531 1901.359375 1127.410156 1901.988281 1124.570312 "/>
<path fill-rule="evenodd" fill="rgb(0%, 0%, 0%)" fill-opacity="1" d="M 422.183594 1133.761719 C 425.8125 1132.730469 428.726562 1130.71875 430.683594 1127.109375 C 442.0625 1106.128906 490.3125 1083.789062 515.574219 1109.558594 C 546.046875 1140.660156 551.90625 1208.859375 533.617188 1247.359375 C 525.003906 1265.488281 509.523438 1279.21875 500.933594 1297.320312 C 494.554688 1310.765625 496.175781 1324.582031 497.96875 1338.859375 C 498.082031 1339.757812 499.839844 1349.246094 498.53125 1349.523438 C 497.570312 1349.730469 495.660156 1345.332031 495.359375 1344.75 C 487.492188 1329.667969 479.589844 1313.847656 464.835938 1304.320312 C 446.082031 1292.210938 422.308594 1292.398438 402.394531 1282.238281 C 374.210938 1267.859375 325.59375 1209.019531 337.367188 1175.449219 C 355.503906 1123.75 389.644531 1134.328125 411.96875 1134.769531 L 412.257812 1136.679688 L 412.265625 1136.71875 C 409.484375 1138.050781 406.71875 1140.46875 405.148438 1141.621094 C 393.488281 1150.191406 381.292969 1160.210938 371.164062 1170.53125 C 369.621094 1172.101562 360.519531 1180.519531 362.1875 1183.449219 C 362.894531 1184.691406 370.398438 1179.050781 370.992188 1178.601562 C 380.265625 1171.589844 388.6875 1163.511719 397.851562 1156.359375 C 402.339844 1152.859375 406.917969 1149.46875 411.320312 1145.871094 L 414.21875 1143.378906 C 415.574219 1147.011719 417.179688 1150.210938 418.113281 1151.929688 L 420.40625 1156.230469 C 412.605469 1162.109375 399.34375 1176.988281 396.539062 1179.890625 C 391.777344 1184.808594 386.0625 1190.488281 383.007812 1196.710938 C 382.839844 1197.058594 382.003906 1198.648438 382.707031 1198.96875 C 384.589844 1199.839844 389.558594 1195.128906 390.757812 1194.191406 C 399.304688 1187.460938 406.703125 1179.25 414.164062 1171.378906 C 417.066406 1168.308594 420.085938 1165.351562 422.898438 1162.199219 L 423.289062 1161.761719 L 424.410156 1163.941406 L 429.011719 1173.289062 C 426.660156 1174.691406 424.257812 1178.761719 423.503906 1179.96875 C 416.929688 1190.53125 410.285156 1201.128906 404.015625 1211.871094 C 403.191406 1213.289062 397.332031 1221.429688 398.628906 1223.210938 C 399.589844 1224.519531 406.054688 1217.171875 406.53125 1216.609375 C 413.628906 1208.398438 420.570312 1199.390625 426.535156 1190.320312 C 428.597656 1187.179688 430.636719 1184.03125 432.589844 1180.820312 L 436.109375 1188.390625 L 440.207031 1197.648438 C 435.363281 1201.269531 427.234375 1219.878906 425.230469 1224.21875 C 424.683594 1225.398438 420.570312 1232.558594 421.847656 1233.878906 C 422.761719 1234.828125 427.050781 1229.320312 427.394531 1228.890625 C 432.269531 1222.878906 436.710938 1216.398438 440.574219 1209.691406 C 441.007812 1208.941406 442.117188 1206.53125 443.101562 1204.339844 L 446.886719 1213.261719 L 450.894531 1223.039062 C 446.703125 1225.769531 436.257812 1255.011719 437.507812 1256.578125 C 437.835938 1256.988281 438.894531 1255.269531 438.917969 1255.238281 C 443.6875 1248.148438 446.976562 1239.910156 450.429688 1232.140625 C 450.703125 1231.519531 451.695312 1228.429688 452.421875 1226.800781 L 462.035156 1251.011719 C 465.765625 1260.519531 469.011719 1270.269531 473.28125 1279.558594 C 473.671875 1280.410156 476.421875 1287.109375 478.101562 1286.511719 C 480.859375 1285.511719 473.445312 1263.671875 471.359375 1258.121094 C 468.3125 1250.03125 465.125 1242 461.863281 1233.988281 C 463.238281 1234.300781 467.070312 1236.160156 467.804688 1236.421875 C 475.824219 1239.28125 484.058594 1242.570312 492.480469 1244 C 492.519531 1244 494.5 1244.421875 494.425781 1243.898438 C 494.140625 1241.871094 464.703125 1228.871094 460.648438 1230.558594 L 461.011719 1231.910156 L 454.085938 1215.019531 L 452.84375 1212.011719 C 455.066406 1212.789062 457.503906 1213.621094 458.328125 1213.820312 C 465.851562 1215.640625 473.609375 1216.878906 481.328125 1217.5 C 481.871094 1217.539062 488.824219 1218.230469 488.765625 1216.910156 C 488.683594 1215.070312 480.664062 1213.121094 479.429688 1212.710938 C 474.953125 1211.191406 456.226562 1204.378906 450.054688 1205.230469 L 445.246094 1193.558594 L 443.082031 1188.171875 C 446.691406 1188.949219 450.324219 1189.640625 453.960938 1190.289062 C 464.644531 1192.21875 475.957031 1193.398438 486.800781 1193.910156 C 487.53125 1193.949219 497.3125 1194.328125 497.023438 1192.730469 C 496.632812 1190.570312 486.6875 1189.199219 485.097656 1188.820312 C 472.992188 1185.96875 460.734375 1183.480469 448.550781 1180.96875 C 447.160156 1180.679688 442.609375 1179.628906 439.964844 1180.339844 L 436.699219 1171.96875 L 435.265625 1168.261719 L 436.085938 1168.28125 C 440.304688 1168.421875 444.53125 1168.269531 448.753906 1168.28125 C 459.601562 1168.289062 470.652344 1168.589844 481.417969 1167.03125 C 482.925781 1166.808594 489.761719 1166.449219 490.429688 1164.488281 C 490.679688 1163.761719 488.949219 1163.269531 488.585938 1163.148438 C 481.96875 1161.070312 473.914062 1161.308594 467.066406 1161.371094 C 462.972656 1161.398438 442.460938 1160.738281 433.019531 1162.441406 L 427.859375 1149.078125 L 432.226562 1148.640625 C 437.871094 1147.929688 443.480469 1146.941406 449.105469 1146.109375 C 460.609375 1144.390625 472.265625 1143.859375 483.730469 1141.960938 C 484.46875 1141.839844 493.726562 1140.289062 493.3125 1138.921875 C 492.339844 1135.699219 479.96875 1136.488281 477.765625 1136.53125 C 463.3125 1136.761719 447.644531 1138.699219 433.402344 1141.25 C 431.59375 1141.570312 428.242188 1141.890625 425.449219 1142.851562 L 425.113281 1141.980469 C 424.070312 1139.261719 423.058594 1136.53125 422.183594 1133.761719 "/>
<path fill-rule="evenodd" fill="rgb(0%, 0%, 0%)" fill-opacity="1" d="M 298.8125 1623.492188 C 302.464844 1624.425781 305.996094 1624.144531 309.503906 1622.003906 C 329.871094 1609.5625 382.816406 1614.449219 391.734375 1649.421875 C 402.492188 1691.609375 373.339844 1753.546875 338.203125 1777.671875 C 321.652344 1789.035156 301.375 1793.140625 284.863281 1804.488281 C 272.597656 1812.917969 267.070312 1825.683594 261.457031 1838.929688 C 261.105469 1839.765625 257.863281 1848.855469 256.59375 1848.441406 C 255.65625 1848.132812 256.214844 1843.371094 256.242188 1842.71875 C 257.007812 1825.722656 258.109375 1808.070312 250.125 1792.429688 C 239.980469 1772.550781 219.320312 1760.785156 207.191406 1742 C 190.027344 1715.417969 177.5 1640.128906 204.527344 1617 C 246.152344 1581.375 270.378906 1607.660156 289.464844 1619.242188 L 288.761719 1621.035156 L 288.75 1621.074219 C 285.671875 1620.832031 282.066406 1621.539062 280.132812 1621.75 C 265.742188 1623.308594 250.164062 1625.859375 236.230469 1629.699219 C 234.105469 1630.285156 222.011719 1633.003906 221.980469 1636.367188 C 221.96875 1637.796875 231.292969 1636.683594 232.03125 1636.59375 C 243.570312 1635.183594 254.90625 1632.425781 266.425781 1630.832031 C 272.0625 1630.054688 277.722656 1629.425781 283.339844 1628.515625 L 287.097656 1627.816406 C 286.449219 1631.636719 286.230469 1635.210938 286.171875 1637.171875 L 285.996094 1642.039062 C 276.300781 1643.207031 257.359375 1649.429688 253.480469 1650.527344 C 246.894531 1652.398438 239.101562 1654.4375 233.335938 1658.292969 C 233.019531 1658.503906 231.496094 1659.460938 231.941406 1660.097656 C 233.136719 1661.789062 239.796875 1660.214844 241.304688 1659.996094 C 252.074219 1658.46875 262.59375 1655.074219 273 1652.007812 C 277.046875 1650.8125 281.148438 1649.765625 285.160156 1648.449219 L 285.714844 1648.273438 L 285.59375 1650.71875 L 284.882812 1661.109375 C 282.144531 1661.144531 278.027344 1663.457031 276.765625 1664.128906 C 265.78125 1669.964844 254.714844 1675.800781 243.902344 1681.945312 C 242.480469 1682.753906 233.324219 1686.863281 233.554688 1689.046875 C 233.726562 1690.664062 243.007812 1687.546875 243.699219 1687.308594 C 253.960938 1683.765625 264.484375 1679.453125 274.195312 1674.601562 C 277.554688 1672.921875 280.902344 1671.214844 284.199219 1669.421875 L 283.445312 1677.734375 L 282.34375 1687.800781 C 276.339844 1688.5 259.96875 1700.523438 256.058594 1703.269531 C 254.992188 1704.019531 247.84375 1708.148438 248.28125 1709.933594 C 248.597656 1711.210938 255.070312 1708.597656 255.585938 1708.402344 C 262.820312 1705.644531 269.910156 1702.265625 276.621094 1698.402344 C 277.371094 1697.96875 279.546875 1696.4375 281.492188 1695.039062 L 280.285156 1704.65625 L 278.847656 1715.128906 C 273.855469 1715.386719 250.148438 1735.433594 250.441406 1737.421875 C 250.515625 1737.945312 252.300781 1736.988281 252.335938 1736.96875 C 260.015625 1733.230469 266.992188 1727.757812 273.882812 1722.761719 C 274.425781 1722.367188 276.839844 1720.1875 278.285156 1719.148438 L 274.453125 1744.914062 C 272.90625 1755.007812 270.824219 1765.074219 269.855469 1775.246094 C 269.765625 1776.179688 268.78125 1783.359375 270.539062 1783.679688 C 273.425781 1784.199219 277.972656 1761.585938 278.945312 1755.742188 C 280.371094 1747.214844 281.648438 1738.664062 282.84375 1730.101562 C 283.878906 1731.058594 286.257812 1734.59375 286.761719 1735.191406 C 292.265625 1741.683594 297.738281 1748.660156 304.308594 1754.121094 C 304.335938 1754.144531 305.839844 1755.5 306.039062 1755.011719 C 306.808594 1753.117188 287.867188 1727.097656 283.511719 1726.523438 L 283.148438 1727.875 L 285.632812 1709.792969 L 286.070312 1706.5625 C 287.601562 1708.351562 289.292969 1710.289062 289.90625 1710.878906 C 295.503906 1716.230469 301.585938 1721.199219 307.957031 1725.601562 C 308.40625 1725.910156 314.070312 1729.996094 314.683594 1728.828125 C 315.535156 1727.199219 309.574219 1721.488281 308.71875 1720.503906 C 305.609375 1716.941406 292.820312 1701.664062 287.054688 1699.304688 L 288.757812 1686.789062 L 289.585938 1681.046875 C 292.320312 1683.53125 295.117188 1685.949219 297.933594 1688.339844 C 306.207031 1695.367188 315.402344 1702.0625 324.523438 1707.945312 C 325.136719 1708.34375 333.410156 1713.582031 333.960938 1712.050781 C 334.707031 1709.984375 326.792969 1703.8125 325.605469 1702.691406 C 316.566406 1694.144531 307.210938 1685.84375 297.929688 1677.554688 C 296.875 1676.613281 293.460938 1673.421875 290.816406 1672.710938 L 292.195312 1663.832031 L 292.816406 1659.902344 L 293.515625 1660.332031 C 297.097656 1662.5625 300.828125 1664.558594 304.476562 1666.683594 C 313.851562 1672.140625 323.261719 1677.941406 333.355469 1681.992188 C 334.769531 1682.5625 340.863281 1685.679688 342.425781 1684.320312 C 343.011719 1683.808594 341.757812 1682.515625 341.5 1682.234375 C 336.820312 1677.117188 329.738281 1673.277344 323.785156 1669.894531 C 320.222656 1667.871094 302.8125 1657.003906 293.792969 1653.738281 L 296.03125 1639.59375 L 300.03125 1641.402344 C 305.269531 1643.625 310.617188 1645.582031 315.90625 1647.683594 C 326.714844 1651.972656 337.066406 1657.355469 347.9375 1661.46875 C 348.632812 1661.734375 357.421875 1665.035156 357.75 1663.644531 C 358.523438 1660.371094 347.425781 1654.851562 345.5 1653.777344 C 332.882812 1646.722656 318.359375 1640.539062 304.757812 1635.597656 C 303.03125 1634.96875 299.976562 1633.5625 297.074219 1632.992188 L 297.222656 1632.070312 C 297.683594 1629.195312 298.175781 1626.328125 298.8125 1623.492188 "/>
<path fill-rule="evenodd" fill="rgb(0%, 0%, 0%)" fill-opacity="1" d="M 1949.089844 1680.363281 C 1951.050781 1677.140625 1951.808594 1673.683594 1950.78125 1669.703125 C 1944.820312 1646.59375 1964.941406 1597.371094 2000.988281 1599.039062 C 2044.480469 1601.054688 2095.230469 1647.003906 2108.050781 1687.644531 C 2114.101562 1706.792969 2112.109375 1727.386719 2118.148438 1746.488281 C 2122.640625 1760.679688 2133.230469 1769.691406 2144.269531 1778.921875 C 2144.96875 1779.503906 2152.71875 1785.253906 2151.949219 1786.347656 C 2151.378906 1787.15625 2146.988281 1785.234375 2146.371094 1785.015625 C 2130.339844 1779.328125 2113.78125 1773.128906 2096.488281 1776.199219 C 2074.511719 1780.109375 2057.230469 1796.4375 2035.730469 1802.5625 C 2005.300781 1811.226562 1929.621094 1801.253906 1915.378906 1768.65625 C 1893.449219 1718.449219 1925.648438 1702.941406 1942.300781 1688.0625 L 1943.808594 1689.257812 L 1943.839844 1689.28125 C 1942.710938 1692.15625 1942.339844 1695.808594 1941.980469 1697.722656 C 1939.269531 1711.941406 1937.171875 1727.582031 1936.78125 1742.035156 C 1936.71875 1744.238281 1935.789062 1756.597656 1939 1757.605469 C 1940.359375 1758.035156 1942.019531 1748.792969 1942.140625 1748.058594 C 1944.160156 1736.613281 1944.828125 1724.964844 1946.671875 1713.480469 C 1947.558594 1707.863281 1948.609375 1702.265625 1949.378906 1696.628906 L 1949.808594 1692.828125 C 1953.269531 1694.5625 1956.628906 1695.816406 1958.488281 1696.441406 L 1963.089844 1698.027344 C 1961.378906 1707.644531 1961.808594 1727.574219 1961.730469 1731.605469 C 1961.601562 1738.453125 1961.28125 1746.5 1963.28125 1753.140625 C 1963.390625 1753.507812 1963.859375 1755.242188 1964.601562 1755 C 1966.570312 1754.351562 1967 1747.523438 1967.238281 1746.015625 C 1968.921875 1735.269531 1968.738281 1724.21875 1968.839844 1713.367188 C 1968.878906 1709.148438 1969.070312 1704.921875 1968.980469 1700.699219 L 1968.96875 1700.117188 L 1971.28125 1700.945312 L 1981.011719 1704.65625 C 1980.25 1707.285156 1981.261719 1711.902344 1981.53125 1713.300781 C 1983.910156 1725.511719 1986.261719 1737.796875 1988.988281 1749.933594 C 1989.351562 1751.527344 1990.609375 1761.484375 1992.761719 1761.898438 C 1994.359375 1762.207031 1994.089844 1752.421875 1994.058594 1751.691406 C 1993.660156 1740.84375 1992.609375 1729.519531 1990.800781 1718.8125 C 1990.171875 1715.113281 1989.511719 1711.410156 1988.761719 1707.734375 L 1996.488281 1710.878906 L 2005.800781 1714.867188 C 2004.71875 1720.816406 2011.441406 1739.980469 2012.929688 1744.523438 C 2013.339844 1745.765625 2015.199219 1753.804688 2017.039062 1753.90625 C 2018.351562 1753.976562 2017.738281 1747.019531 2017.699219 1746.472656 C 2017.171875 1738.75 2016.011719 1730.980469 2014.269531 1723.4375 C 2014.078125 1722.589844 2013.25 1720.066406 2012.480469 1717.796875 L 2021.328125 1721.753906 L 2030.921875 1726.183594 C 2029.710938 1731.035156 2041.980469 1759.554688 2043.960938 1759.855469 C 2044.480469 1759.9375 2044.089844 1757.953125 2044.078125 1757.914062 C 2042.738281 1749.476562 2039.539062 1741.207031 2036.78125 1733.15625 C 2036.558594 1732.523438 2035.179688 1729.578125 2034.601562 1727.894531 L 2058.128906 1739.074219 C 2067.339844 1743.496094 2076.351562 1748.425781 2085.800781 1752.316406 C 2086.671875 1752.671875 2093.25 1755.710938 2094.070312 1754.121094 C 2095.410156 1751.515625 2075.101562 1740.570312 2069.800781 1737.933594 C 2062.058594 1734.082031 2054.25 1730.367188 2046.410156 1726.726562 C 2047.628906 1726.015625 2051.699219 1724.773438 2052.421875 1724.464844 C 2060.230469 1721.09375 2068.5 1717.894531 2075.640625 1713.203125 C 2075.679688 1713.179688 2077.410156 1712.140625 2077 1711.804688 C 2075.410156 1710.515625 2045 1721.046875 2043.179688 1725.046875 L 2044.371094 1725.785156 L 2027.800781 1718.140625 L 2024.828125 1716.777344 C 2026.988281 1715.832031 2029.339844 1714.78125 2030.078125 1714.363281 C 2036.828125 1710.574219 2043.359375 1706.203125 2049.429688 1701.394531 C 2049.859375 1701.054688 2055.410156 1696.824219 2054.480469 1695.902344 C 2053.171875 1694.609375 2045.960938 1698.644531 2044.78125 1699.179688 C 2040.460938 1701.113281 2022.121094 1708.890625 2018.179688 1713.714844 L 2006.710938 1708.441406 L 2001.449219 1705.972656 C 2004.628906 1704.082031 2007.75 1702.109375 2010.859375 1700.113281 C 2020 1694.25 2029.078125 1687.40625 2037.371094 1680.398438 C 2037.929688 1679.925781 2045.351562 1673.542969 2044.050781 1672.570312 C 2042.289062 1671.253906 2034.078125 1677.023438 2032.660156 1677.832031 C 2021.851562 1683.984375 2011.179688 1690.515625 2000.550781 1696.972656 C 1999.339844 1697.707031 1995.289062 1700.039062 1993.839844 1702.363281 L 1985.75 1698.457031 L 1982.171875 1696.714844 L 1982.78125 1696.175781 C 1985.960938 1693.398438 1988.960938 1690.410156 1992.050781 1687.539062 C 2000.011719 1680.164062 2008.300781 1672.855469 2015.121094 1664.382812 C 2016.078125 1663.195312 2020.839844 1658.273438 2019.988281 1656.386719 C 2019.679688 1655.675781 2018.070312 1656.496094 2017.730469 1656.660156 C 2011.46875 1659.648438 2005.730469 1665.300781 2000.761719 1670.007812 C 1997.78125 1672.824219 1982.308594 1686.308594 1976.558594 1693.984375 L 1963.679688 1687.71875 L 1966.578125 1684.421875 C 1970.230469 1680.054688 1973.660156 1675.515625 1977.210938 1671.066406 C 1984.46875 1661.980469 1992.640625 1653.648438 1999.738281 1644.449219 C 2000.199219 1643.859375 2005.921875 1636.414062 2004.691406 1635.695312 C 2001.78125 1634 1993.261719 1643.011719 1991.679688 1644.535156 C 1981.25 1654.550781 1971.101562 1666.636719 1962.398438 1678.203125 C 1961.300781 1679.671875 1959.058594 1682.1875 1957.671875 1684.792969 L 1956.828125 1684.386719 C 1954.21875 1683.105469 1951.621094 1681.796875 1949.089844 1680.363281 "/>
<path fill-rule="evenodd" fill="rgb(13.696289%, 12.205505%, 12.5%)" fill-opacity="1" d="M 910.742188 1043.96875 C 924 1030 936 1021 961.46875 1016.191406 C 987.332031 1011.308594 1001.289062 1007.21875 1012.601562 1003.941406 C 1014.429688 1003.410156 1016.261719 1002.898438 1018.089844 1002.390625 C 1022.058594 1001.230469 1026.058594 1000.109375 1030.050781 998.960938 L 1030.191406 998.871094 L 1030.199219 998.921875 C 1063.5 989.328125 1095.648438 977.710938 1090.699219 923.109375 C 1090.539062 921.320312 1090.320312 917.660156 1089.941406 913.140625 C 1086.789062 921.800781 1084.628906 937.5 1084.398438 940.828125 C 1083.519531 953.308594 1072.058594 974.109375 1065.71875 972.460938 C 1058.570312 970.601562 1060.171875 956.171875 1060.171875 950.910156 C 1060.171875 927.28125 1056.808594 884.761719 1051.308594 861.78125 C 1045.210938 836.320312 1026.148438 800.871094 1032.929688 751.488281 C 1037.71875 716.5 1058.121094 678.261719 1075.210938 668.769531 C 1091.75 659.578125 1080.238281 648.148438 1088.070312 635.679688 C 1100.289062 616.230469 1132.191406 617.300781 1113.808594 576.859375 C 1104.199219 555.71875 1131.980469 531.96875 1138.160156 505.71875 C 1142.160156 488.710938 1144.808594 471.300781 1150.640625 454.769531 C 1151.101562 453.460938 1155.070312 441.289062 1158.148438 442.03125 L 1158.75 442.359375 C 1161.910156 445.121094 1162.238281 452.539062 1162.808594 456.289062 C 1164.601562 468.179688 1165.488281 480.121094 1167.859375 491.929688 C 1173.449219 519.890625 1189.230469 536.328125 1194.691406 563.988281 C 1197.261719 576.980469 1187.378906 592.699219 1191.011719 604.429688 C 1191.949219 607.460938 1209.308594 626.070312 1213.460938 631.378906 C 1218.128906 637.351562 1222.160156 644 1224.5 651.25 C 1225.78125 655.199219 1225.339844 660.46875 1227.898438 663.898438 C 1231.949219 669.351562 1240.71875 672.511719 1245.851562 677.011719 C 1259.859375 689.300781 1270.621094 705.871094 1274.371094 724.21875 C 1278.648438 745.261719 1277.800781 767.789062 1273.738281 788.25 C 1271.011719 801.980469 1267.25 822.289062 1264.539062 836.050781 C 1258.421875 867.160156 1249.839844 877.449219 1249.839844 904.058594 C 1249.839844 922.441406 1252.21875 938.789062 1255.351562 948.179688 C 1262.710938 970.238281 1250.839844 969.621094 1248 968.398438 C 1235.128906 962.890625 1227.128906 938.308594 1224.609375 922.671875 C 1224.050781 919.199219 1222.808594 906.871094 1218.589844 905.898438 C 1217.238281 905.589844 1215.800781 906.03125 1214.320312 906.980469 C 1216.859375 932.191406 1217.390625 959.378906 1238.03125 978.71875 C 1252.011719 991.820312 1269.449219 999.398438 1286.78125 1007.261719 C 1341.878906 1013.191406 1427.878906 1014.570312 1452.941406 1052.011719 C 1475.910156 1086.308594 1466.128906 1139.089844 1467.621094 1177.808594 C 1470.371094 1249.671875 1494.660156 1320.1875 1492.949219 1392.019531 C 1492.359375 1417.074219 1481.179688 1438.195312 1468.941406 1459.492188 C 1465.160156 1466.078125 1452.800781 1481.910156 1458.140625 1490.328125 C 1467.671875 1505.363281 1670.800781 1505.167969 1727.78125 1545.609375 C 1796.578125 1594.429688 1783.101562 1681.683594 1748.839844 1715.726562 C 1744.308594 1720.234375 1739.449219 1724.132812 1734.320312 1727.503906 C 1735.210938 1740.039062 1736.609375 1757.371094 1749.839844 1785.425781 C 1759.730469 1806.398438 1815.621094 1896.132812 1780.589844 1913.816406 C 1675.589844 1966.816406 617.011719 1942.367188 576.589844 1915.816406 C 546.679688 1896.171875 577.160156 1831.101562 588.589844 1812.816406 C 602.832031 1790.023438 599.847656 1758.8125 601.863281 1731.015625 C 588.789062 1724.476562 578.101562 1716.183594 570.828125 1705.691406 C 556.507812 1685.035156 552.992188 1657.59375 559.207031 1633.558594 C 582.792969 1542.363281 685.257812 1532.847656 768.855469 1525.300781 C 800.933594 1522.402344 917.953125 1491.160156 975 1468 C 924.121094 1445.695312 830 1418 823 1378 C 810.882812 1308.765625 833.078125 1253.328125 857.105469 1172.550781 C 869.148438 1132.039062 879.601562 1076.800781 910.742188 1043.96875 Z M 992.3125 1178.019531 C 975.863281 1201.171875 955.3125 1233.511719 939 1278 C 928 1308 926.636719 1317.273438 932 1328 C 935.933594 1335.863281 943.871094 1340.167969 962 1349.53125 C 980.757812 1359.222656 1000.039062 1373.019531 1023.839844 1384.289062 C 1033.78125 1352.941406 1043.601562 1318.53125 1034.988281 1280.269531 C 1027.449219 1246.789062 1008.898438 1212.738281 992.3125 1178.019531 "/>
</svg>
