<?xml version="1.0" encoding="UTF-8"?>
<svg xmlns="http://www.w3.org/2000/svg" xmlns:xlink="http://www.w3.org/1999/xlink" width="2749.89" height="3304.92" viewBox="0 0 2749.89 3304.92">
<defs>
<clipPath id="clip-0">
<path clip-rule="evenodd" d="M 1776.859375 1909.28125 C 1787.628906 1909.28125 1798.371094 1906.578125 1809.140625 1898.511719 C 2032.339844 1750.609375 2166.789062 1500.539062 2166.789062 1231.621094 C 2166.789062 965.398438 2035.019531 715.308594 1811.839844 567.410156 C 1784.921875 548.578125 1749.988281 556.648438 1731.160156 583.539062 C 1712.328125 610.429688 1720.390625 645.390625 1747.28125 664.210938 C 1938.210938 790.601562 2051.148438 1003.050781 2051.148438 1231.621094 C 2051.148438 1460.199219 1935.53125 1675.308594 1744.601562 1801.699219 C 1717.710938 1820.53125 1709.648438 1855.488281 1728.449219 1882.378906 C 1739.21875 1901.21875 1758.050781 1909.28125 1776.859375 1909.28125 Z M 964.761719 1914.640625 C 986.269531 1914.640625 1005.089844 1903.898438 1010.460938 1890.449219 C 1029.289062 1863.550781 1021.230469 1825.910156 994.335938 1809.761719 C 798.027344 1683.371094 679.703125 1468.261719 679.703125 1234.300781 C 679.703125 1003.03125 798.027344 787.910156 991.644531 661.519531 C 1018.539062 642.699219 1026.601562 607.738281 1007.769531 580.839844 C 988.949219 553.960938 953.992188 545.890625 927.097656 564.71875 C 701.214844 712.609375 564.070312 962.699219 564.070312 1234.300781 C 564.070312 1505.910156 701.214844 1758.671875 932.480469 1906.578125 C 943.234375 1911.960938 953.992188 1914.640625 964.761719 1914.640625 Z M 2177.539062 2457.859375 Z M 1833.328125 2503.558594 L 2053.851562 2629.949219 C 2059.210938 2576.179688 2078.039062 2471.308594 2139.898438 2417.511719 C 2172.179688 2385.238281 2712.691406 1817.851562 2618.558594 1309.601562 C 2591.660156 1161.699219 2508.320312 1029.941406 2376.550781 916.988281 C 2497.550781 1129.441406 2567.46875 1454.820312 2303.929688 1863.550781 C 2295.859375 1877 2069.980469 2258.871094 1524.078125 2543.898438 L 1524.078125 2560.03125 C 1596.679688 2525.070312 1626.28125 2508.941406 1637.019531 2500.878906 C 1647.789062 2492.820312 1690.808594 2457.859375 1747.28125 2463.21875 C 1768.789062 2463.21875 1803.75 2471.308594 1833.328125 2503.558594 Z M 870.640625 2855.828125 C 873.332031 2858.539062 878.703125 2861.21875 881.394531 2863.921875 C 953.992188 2826.261719 1126.101562 2734.828125 1222.910156 2689.128906 L 1222.910156 2675.679688 C 1126.101562 2724.078125 980.898438 2794 870.640625 2855.828125 Z M 741.558594 2925.78125 C 695.84375 2925.78125 655.511719 2963.410156 655.511719 3011.820312 C 655.511719 3060.230469 693.148438 3097.871094 741.558594 3097.871094 C 787.273438 3097.871094 827.617188 3060.230469 827.617188 3011.820312 C 827.617188 2996.691406 823.675781 2982.609375 816.859375 2970.398438 L 816.835938 2970.351562 C 815.902344 2968.980469 815.007812 2967.558594 814.167969 2966.089844 C 813.550781 2965.070312 812.921875 2964.039062 812.265625 2963.070312 C 796.398438 2940.378906 770.015625 2925.78125 741.558594 2925.78125 Z M 620.539062 2417.511719 C 682.394531 2471.308594 701.226562 2576.179688 706.597656 2629.949219 L 910.96875 2503.558594 C 943.25 2471.308594 975.515625 2460.539062 999.71875 2460.539062 C 1056.191406 2457.859375 1099.210938 2490.109375 1109.96875 2498.179688 C 1120.550781 2506.128906 1146.738281 2521.871094 1216.679688 2555.640625 L 1222.910156 2552.988281 L 1222.910156 2541.199219 C 677.011719 2256.171875 451.128906 1874.289062 440.371094 1858.171875 C 179.53125 1449.441406 246.757812 1126.738281 367.773438 914.308594 C 236.003906 1024.558594 155.328125 1156.328125 128.445312 1301.539062 C 37.003906 1812.46875 588.285156 2385.238281 620.539062 2417.511719 Z M 1408.460938 2745.070312 C 1406.699219 2739.289062 1405.78125 2733.121094 1405.78125 2726.761719 L 1405.78125 2651.488281 C 1405.78125 2645.128906 1406.699219 2639.140625 1408.460938 2633.570312 L 1408.460938 2296.511719 C 1413.820312 2172.800781 1569.808594 2089.429688 1663.921875 2049.089844 C 1292.828125 1323.050781 1564.421875 626.570312 1655.851562 432.941406 C 1532.140625 354.960938 1432.648438 233.960938 1373.488281 158.660156 C 1317.03125 233.960938 1214.851562 354.980469 1091.140625 432.941406 C 1179.871094 626.570312 1454.160156 1323.050781 1083.070312 2049.089844 C 1179.871094 2089.429688 1333.160156 2170.121094 1338.53125 2293.808594 L 1338.53125 2591.421875 L 1338.539062 2592.289062 L 1338.539062 2729.441406 L 1338.53125 2730.570312 L 1338.53125 2904.238281 L 1341.390625 2904.191406 C 1350.859375 2902.640625 1360.550781 2901.769531 1370.390625 2901.609375 L 1371.011719 2901.578125 L 1373.5 2901.558594 C 1384.261719 2901.558594 1395.011719 2901.558594 1408.460938 2904.238281 Z M 1981.859375 2925.71875 C 1961.210938 2931.03125 1943.039062 2943.980469 1931.171875 2961.648438 L 1930.140625 2963.410156 C 1929.28125 2964.941406 1928.359375 2966.410156 1927.390625 2967.828125 C 1920.609375 2980.011719 1916.699219 2994.039062 1916.699219 3009.121094 C 1916.699219 3057.519531 1954.359375 3095.160156 2002.738281 3095.160156 C 2051.148438 3095.160156 2088.808594 3057.519531 2088.808594 3009.121094 C 2088.808594 2960.921875 2051.460938 2923.390625 2003.339844 2923.070312 L 2002.769531 2923.101562 C 1997.671875 2923.101562 1992.578125 2923.570312 1987.589844 2924.460938 L 1986.21875 2924.730469 L 1985.929688 2924.78125 L 1984.851562 2925.011719 L 1984.71875 2925.039062 L 1983.511719 2925.328125 L 1982.171875 2925.640625 Z M 1870.628906 2857.539062 L 1873.019531 2855.460938 C 1771.03125 2796.46875 1639.730469 2732.148438 1532.429688 2683.871094 L 1524.949219 2687.339844 L 1524.871094 2687.390625 L 1524.628906 2687.5 L 1521.398438 2689.128906 C 1620.898438 2734.828125 1793.011719 2823.578125 1862.898438 2863.921875 C 1865.03125 2861.789062 1867.160156 2859.671875 1870.628906 2857.539062 Z M 2002.738281 3210.808594 C 1892.5 3210.808594 1801.078125 3119.378906 1801.078125 3009.121094 C 1801.078125 2992.988281 1803.039062 2977.261719 1806.71875 2962.148438 C 1744.179688 2929.300781 1615.878906 2863.160156 1521.398438 2817.671875 L 1521.398438 2967.011719 C 1554.679688 3003.078125 1575.191406 3051.039062 1575.191406 3103.25 C 1575.191406 3213.488281 1483.738281 3304.921875 1373.5 3304.921875 C 1263.25 3304.921875 1171.820312 3213.488281 1171.820312 3103.25 C 1171.820312 3051.039062 1192.320312 3003.078125 1225.601562 2967.011719 L 1225.601562 2819.429688 C 1130.980469 2865.550781 1001.21875 2933.710938 937.929688 2966.25 C 941.398438 2980.929688 943.25 2996.191406 943.25 3011.820312 C 943.25 3122.058594 851.804688 3213.488281 741.558594 3213.488281 C 631.308594 3213.488281 539.878906 3122.078125 539.878906 3011.820312 C 539.878906 2908.570312 620.054688 2821.839844 720.78125 2811.230469 C 817.582031 2746.511719 963.460938 2672.421875 1081.140625 2616.96875 C 1054.390625 2602.109375 1040.519531 2592.628906 1031.96875 2586.929688 L 1029.28125 2584.25 C 1005.089844 2562.738281 991.644531 2576.179688 986.257812 2584.25 C 983.566406 2589.609375 978.183594 2592.308594 972.8125 2594.988281 L 741.542969 2737.511719 C 744.25 2742.890625 720.046875 2756.339844 687.777344 2756.339844 C 677.011719 2756.339844 666.253906 2753.660156 652.820312 2750.980469 C 631.308594 2742.890625 604.414062 2721.378906 590.964844 2672.96875 C 590.964844 2670.289062 590.964844 2667.609375 588.273438 2662.230469 C 585.582031 2613.820312 569.453125 2527.78125 539.867188 2503.558594 L 537.175781 2500.878906 C 510.289062 2473.988281 -94.769531 1866.230469 12.796875 1282.710938 C 63.898438 1003.03125 270.960938 779.839844 628.617188 621.191406 C 655.5 607.738281 687.777344 618.5 703.90625 645.378906 C 717.355469 672.269531 711.96875 704.539062 685.085938 720.679688 C 660.882812 736.808594 109.613281 1129.421875 537.175781 1796.308594 C 539.734375 1801.441406 743.84375 2146.480469 1225.601562 2411.53125 L 1225.601562 2296.511719 C 1222.910156 2242.71875 1085.761719 2167.421875 986.269531 2137.839844 C 970.132812 2132.480469 956.683594 2119.039062 948.621094 2102.878906 C 943.25 2086.761719 943.25 2067.921875 951.3125 2051.800781 C 1400.398438 1253.128906 970.132812 446.390625 967.4375 438.328125 C 959.375 424.878906 959.375 408.738281 962.066406 392.609375 C 967.4375 376.46875 978.207031 365.71875 991.65625 357.660156 C 1171.820312 266.230469 1322.398438 29.570312 1322.398438 26.878906 C 1333.171875 10.761719 1351.980469 0 1370.808594 0 C 1389.628906 0 1408.460938 10.761719 1419.199219 26.878906 C 1421.910156 29.570312 1572.488281 266.230469 1755.351562 357.640625 C 1768.789062 365.71875 1779.558594 376.46875 1784.921875 392.601562 C 1790.308594 408.738281 1787.628906 424.878906 1779.558594 438.320312 C 1774.179688 446.378906 1346.609375 1253.121094 1795.691406 2051.800781 C 1803.75 2067.921875 1806.460938 2084.050781 1798.371094 2102.878906 C 1793.011719 2119.011719 1779.558594 2132.460938 1760.730469 2137.839844 C 1661.238281 2170.121094 1521.398438 2242.71875 1521.398438 2299.191406 L 1521.398438 2412.710938 C 2001.21875 2147.851562 2204.589844 1804.25 2207.140625 1801.699219 C 2637.390625 1132.121094 2083.429688 739.5 2061.921875 723.371094 C 2037.730469 707.230469 2029.640625 672.269531 2043.109375 648.070312 C 2056.558594 623.878906 2088.808594 610.429688 2118.390625 623.878906 C 2476.039062 782.539062 2685.800781 1005.730469 2736.878906 1288.089844 C 2844.441406 1868.941406 2250.160156 2473.988281 2223.261719 2498.199219 L 2220.578125 2500.878906 C 2193.691406 2522.390625 2174.859375 2605.761719 2172.179688 2659.550781 C 2172.179688 2662.230469 2172.179688 2667.609375 2169.46875 2670.289062 C 2158.730469 2718.699219 2129.128906 2740.210938 2107.621094 2748.269531 C 2094.171875 2753.660156 2083.429688 2756.339844 2072.660156 2756.339844 C 2043.078125 2756.339844 2021.570312 2742.890625 2013.511719 2737.511719 L 1771.46875 2600.371094 C 1766.121094 2597.671875 1760.730469 2592.308594 1755.351562 2586.929688 C 1747.28125 2576.160156 1741.898438 2576.160156 1739.21875 2576.160156 C 1728.449219 2576.160156 1715.03125 2584.21875 1712.328125 2586.929688 L 1709.648438 2589.609375 C 1702.128906 2596.039062 1690.371094 2604.179688 1669.21875 2616.078125 C 1773.441406 2665.28125 1923.339844 2740.109375 2023.828125 2808.578125 C 2124.398438 2819.320312 2204.429688 2905.96875 2204.429688 3009.121094 C 2204.429688 3119.378906 2115.679688 3210.808594 2002.738281 3210.808594 Z M 1435.71875 3044.148438 C 1432.78125 3042.53125 1429.949219 3040.691406 1427.269531 3038.691406 C 1416.519531 3030.628906 1397.691406 3019.878906 1373.5 3019.878906 C 1354.671875 3019.878906 1333.171875 3027.949219 1319.71875 3038.691406 C 1316.859375 3041.078125 1313.730469 3043.210938 1310.429688 3045.050781 C 1296.308594 3060.25 1287.460938 3080.558594 1287.460938 3103.25 C 1287.460938 3151.660156 1325.089844 3189.300781 1373.5 3189.300781 C 1421.910156 3189.300781 1459.550781 3151.660156 1459.550781 3103.25 C 1459.550781 3080.109375 1450.328125 3059.441406 1435.71875 3044.148438 "/>
</clipPath>
<linearGradient id="linear-pattern-0" gradientUnits="userSpaceOnUse" x1="-0.0344165" y1="0" x2="1.034419" y2="0" gradientTransform="matrix(2572.79, 0, 0, 2572.79, 88.5464, 1652.46)">
<stop offset="0" stop-color="rgb(15.585327%, 35.83374%, 36.816406%)" stop-opacity="1"/>
<stop offset="0.03125" stop-color="rgb(15.585327%, 35.83374%, 36.816406%)" stop-opacity="1"/>
<stop offset="0.0390625" stop-color="rgb(15.563965%, 35.720825%, 36.685181%)" stop-opacity="1"/>
<stop offset="0.0429688" stop-color="rgb(15.516663%, 35.476685%, 36.399841%)" stop-opacity="1"/>
<stop offset="0.046875" stop-color="rgb(15.490723%, 35.346985%, 36.248779%)" stop-opacity="1"/>
<stop offset="0.0546875" stop-color="rgb(15.483093%, 35.261536%, 36.184692%)" stop-opacity="1"/>
<stop offset="0.0625" stop-color="rgb(15.467834%, 35.087585%, 36.050415%)" stop-opacity="1"/>
<stop offset="0.0664063" stop-color="rgb(15.434265%, 34.870911%, 35.830688%)" stop-opacity="1"/>
<stop offset="0.0703125" stop-color="rgb(15.408325%, 34.741211%, 35.681152%)" stop-opacity="1"/>
<stop offset="0.0742188" stop-color="rgb(15.370178%, 34.611511%, 35.540771%)" stop-opacity="1"/>
<stop offset="0.078125" stop-color="rgb(15.332031%, 34.483337%, 35.400391%)" stop-opacity="1"/>
<stop offset="0.0820312" stop-color="rgb(15.237427%, 34.347534%, 35.301208%)" stop-opacity="1"/>
<stop offset="0.0859375" stop-color="rgb(15.141296%, 34.211731%, 35.2005%)" stop-opacity="1"/>
<stop offset="0.09375" stop-color="rgb(15.068054%, 34.101868%, 35.105896%)" stop-opacity="1"/>
<stop offset="0.101562" stop-color="rgb(14.976501%, 33.94928%, 34.922791%)" stop-opacity="1"/>
<stop offset="0.109375" stop-color="rgb(14.910889%, 33.828735%, 34.745789%)" stop-opacity="1"/>
<stop offset="0.113281" stop-color="rgb(14.770508%, 33.616638%, 34.555054%)" stop-opacity="1"/>
<stop offset="0.117188" stop-color="rgb(14.675903%, 33.482361%, 34.455872%)" stop-opacity="1"/>
<stop offset="0.121094" stop-color="rgb(14.614868%, 33.352661%, 34.335327%)" stop-opacity="1"/>
<stop offset="0.125" stop-color="rgb(14.553833%, 33.222961%, 34.211731%)" stop-opacity="1"/>
<stop offset="0.128906" stop-color="rgb(14.527893%, 33.097839%, 34.066772%)" stop-opacity="1"/>
<stop offset="0.132812" stop-color="rgb(14.503479%, 32.971191%, 33.920288%)" stop-opacity="1"/>
<stop offset="0.136719" stop-color="rgb(14.477539%, 32.847595%, 33.796692%)" stop-opacity="1"/>
<stop offset="0.140625" stop-color="rgb(14.451599%, 32.720947%, 33.673096%)" stop-opacity="1"/>
<stop offset="0.144531" stop-color="rgb(14.425659%, 32.595825%, 33.566284%)" stop-opacity="1"/>
<stop offset="0.148438" stop-color="rgb(14.399719%, 32.472229%, 33.460999%)" stop-opacity="1"/>
<stop offset="0.15625" stop-color="rgb(14.341736%, 32.371521%, 33.364868%)" stop-opacity="1"/>
<stop offset="0.164062" stop-color="rgb(14.212036%, 32.182312%, 33.175659%)" stop-opacity="1"/>
<stop offset="0.171875" stop-color="rgb(14.094543%, 32.008362%, 32.99408%)" stop-opacity="1"/>
<stop offset="0.175781" stop-color="rgb(14.01062%, 31.837463%, 32.814026%)" stop-opacity="1"/>
<stop offset="0.179688" stop-color="rgb(13.973999%, 31.752014%, 32.722473%)" stop-opacity="1"/>
<stop offset="0.183594" stop-color="rgb(13.946533%, 31.634521%, 32.58667%)" stop-opacity="1"/>
<stop offset="0.1875" stop-color="rgb(13.919067%, 31.515503%, 32.449341%)" stop-opacity="1"/>
<stop offset="0.191406" stop-color="rgb(13.894653%, 31.393433%, 32.307434%)" stop-opacity="1"/>
<stop offset="0.195312" stop-color="rgb(13.868713%, 31.271362%, 32.164001%)" stop-opacity="1"/>
<stop offset="0.199219" stop-color="rgb(13.842773%, 31.149292%, 32.022095%)" stop-opacity="1"/>
<stop offset="0.203125" stop-color="rgb(13.816833%, 31.025696%, 31.878662%)" stop-opacity="1"/>
<stop offset="0.207031" stop-color="rgb(13.787842%, 30.906677%, 31.742859%)" stop-opacity="1"/>
<stop offset="0.210937" stop-color="rgb(13.75885%, 30.787659%, 31.607056%)" stop-opacity="1"/>
<stop offset="0.21875" stop-color="rgb(13.68866%, 30.702209%, 31.555176%)" stop-opacity="1"/>
<stop offset="0.226563" stop-color="rgb(13.554382%, 30.523682%, 31.436157%)" stop-opacity="1"/>
<stop offset="0.230469" stop-color="rgb(13.465881%, 30.311584%, 31.228638%)" stop-opacity="1"/>
<stop offset="0.234375" stop-color="rgb(13.439941%, 30.189514%, 31.088257%)" stop-opacity="1"/>
<stop offset="0.238281" stop-color="rgb(13.414001%, 30.070496%, 30.957031%)" stop-opacity="1"/>
<stop offset="0.242188" stop-color="rgb(13.388062%, 29.948425%, 30.825806%)" stop-opacity="1"/>
<stop offset="0.246094" stop-color="rgb(13.362122%, 29.829407%, 30.723572%)" stop-opacity="1"/>
<stop offset="0.25" stop-color="rgb(13.334656%, 29.708862%, 30.619812%)" stop-opacity="1"/>
<stop offset="0.253906" stop-color="rgb(13.305664%, 29.602051%, 30.509949%)" stop-opacity="1"/>
<stop offset="0.257812" stop-color="rgb(13.273621%, 29.495239%, 30.39856%)" stop-opacity="1"/>
<stop offset="0.261719" stop-color="rgb(13.237%, 29.412842%, 30.273438%)" stop-opacity="1"/>
<stop offset="0.265625" stop-color="rgb(13.200378%, 29.330444%, 30.149841%)" stop-opacity="1"/>
<stop offset="0.269531" stop-color="rgb(13.168335%, 29.229736%, 30.0354%)" stop-opacity="1"/>
<stop offset="0.273438" stop-color="rgb(13.134766%, 29.130554%, 29.922485%)" stop-opacity="1"/>
<stop offset="0.277344" stop-color="rgb(13.108826%, 29.011536%, 29.820251%)" stop-opacity="1"/>
<stop offset="0.28125" stop-color="rgb(13.08136%, 28.892517%, 29.718018%)" stop-opacity="1"/>
<stop offset="0.285156" stop-color="rgb(13.020325%, 28.770447%, 29.598999%)" stop-opacity="1"/>
<stop offset="0.289062" stop-color="rgb(12.95929%, 28.648376%, 29.481506%)" stop-opacity="1"/>
<stop offset="0.292969" stop-color="rgb(12.872314%, 28.52478%, 29.351807%)" stop-opacity="1"/>
<stop offset="0.296875" stop-color="rgb(12.785339%, 28.401184%, 29.220581%)" stop-opacity="1"/>
<stop offset="0.300781" stop-color="rgb(12.739563%, 28.28064%, 29.109192%)" stop-opacity="1"/>
<stop offset="0.304688" stop-color="rgb(12.693787%, 28.161621%, 28.999329%)" stop-opacity="1"/>
<stop offset="0.308594" stop-color="rgb(12.666321%, 28.044128%, 28.897095%)" stop-opacity="1"/>
<stop offset="0.3125" stop-color="rgb(12.638855%, 27.926636%, 28.796387%)" stop-opacity="1"/>
<stop offset="0.316406" stop-color="rgb(12.605286%, 27.836609%, 28.678894%)" stop-opacity="1"/>
<stop offset="0.320312" stop-color="rgb(12.57019%, 27.746582%, 28.561401%)" stop-opacity="1"/>
<stop offset="0.324219" stop-color="rgb(12.533569%, 27.664185%, 28.440857%)" stop-opacity="1"/>
<stop offset="0.328125" stop-color="rgb(12.495422%, 27.583313%, 28.318787%)" stop-opacity="1"/>
<stop offset="0.332031" stop-color="rgb(12.467957%, 27.470398%, 28.216553%)" stop-opacity="1"/>
<stop offset="0.335938" stop-color="rgb(12.438965%, 27.359009%, 28.111267%)" stop-opacity="1"/>
<stop offset="0.339844" stop-color="rgb(12.411499%, 27.243042%, 28.010559%)" stop-opacity="1"/>
<stop offset="0.34375" stop-color="rgb(12.384033%, 27.127075%, 27.909851%)" stop-opacity="1"/>
<stop offset="0.351562" stop-color="rgb(12.376404%, 27.050781%, 27.819824%)" stop-opacity="1"/>
<stop offset="0.359375" stop-color="rgb(12.358093%, 26.896667%, 27.636719%)" stop-opacity="1"/>
<stop offset="0.363281" stop-color="rgb(12.321472%, 26.704407%, 27.445984%)" stop-opacity="1"/>
<stop offset="0.367188" stop-color="rgb(12.294006%, 26.589966%, 27.345276%)" stop-opacity="1"/>
<stop offset="0.371094" stop-color="rgb(12.265015%, 26.480103%, 27.243042%)" stop-opacity="1"/>
<stop offset="0.375" stop-color="rgb(12.234497%, 26.370239%, 27.139282%)" stop-opacity="1"/>
<stop offset="0.378906" stop-color="rgb(12.197876%, 26.289368%, 27.020264%)" stop-opacity="1"/>
<stop offset="0.382812" stop-color="rgb(12.159729%, 26.208496%, 26.901245%)" stop-opacity="1"/>
<stop offset="0.386719" stop-color="rgb(12.110901%, 26.118469%, 26.789856%)" stop-opacity="1"/>
<stop offset="0.390625" stop-color="rgb(12.060547%, 26.026917%, 26.676941%)" stop-opacity="1"/>
<stop offset="0.394531" stop-color="rgb(11.976624%, 25.909424%, 26.585388%)" stop-opacity="1"/>
<stop offset="0.398437" stop-color="rgb(11.8927%, 25.788879%, 26.49231%)" stop-opacity="1"/>
<stop offset="0.402344" stop-color="rgb(11.82251%, 25.65918%, 26.370239%)" stop-opacity="1"/>
<stop offset="0.40625" stop-color="rgb(11.752319%, 25.527954%, 26.249695%)" stop-opacity="1"/>
<stop offset="0.410156" stop-color="rgb(11.706543%, 25.37384%, 26.075745%)" stop-opacity="1"/>
<stop offset="0.414062" stop-color="rgb(11.659241%, 25.221252%, 25.901794%)" stop-opacity="1"/>
<stop offset="0.417969" stop-color="rgb(11.618042%, 25.100708%, 25.767517%)" stop-opacity="1"/>
<stop offset="0.421875" stop-color="rgb(11.575317%, 24.981689%, 25.634766%)" stop-opacity="1"/>
<stop offset="0.425781" stop-color="rgb(11.53717%, 24.900818%, 25.549316%)" stop-opacity="1"/>
<stop offset="0.429687" stop-color="rgb(11.499023%, 24.821472%, 25.465393%)" stop-opacity="1"/>
<stop offset="0.433594" stop-color="rgb(11.46698%, 24.723816%, 25.35553%)" stop-opacity="1"/>
<stop offset="0.4375" stop-color="rgb(11.434937%, 24.624634%, 25.244141%)" stop-opacity="1"/>
<stop offset="0.441406" stop-color="rgb(11.407471%, 24.513245%, 25.115967%)" stop-opacity="1"/>
<stop offset="0.445313" stop-color="rgb(11.380005%, 24.401855%, 24.986267%)" stop-opacity="1"/>
<stop offset="0.449219" stop-color="rgb(11.352539%, 24.291992%, 24.858093%)" stop-opacity="1"/>
<stop offset="0.453125" stop-color="rgb(11.323547%, 24.179077%, 24.729919%)" stop-opacity="1"/>
<stop offset="0.457031" stop-color="rgb(11.296082%, 24.069214%, 24.601746%)" stop-opacity="1"/>
<stop offset="0.460938" stop-color="rgb(11.268616%, 23.957825%, 24.473572%)" stop-opacity="1"/>
<stop offset="0.464844" stop-color="rgb(11.233521%, 23.87085%, 24.378967%)" stop-opacity="1"/>
<stop offset="0.46875" stop-color="rgb(11.196899%, 23.783875%, 24.284363%)" stop-opacity="1"/>
<stop offset="0.472656" stop-color="rgb(11.158752%, 23.704529%, 24.198914%)" stop-opacity="1"/>
<stop offset="0.476562" stop-color="rgb(11.120605%, 23.623657%, 24.11499%)" stop-opacity="1"/>
<stop offset="0.480469" stop-color="rgb(11.090088%, 23.518372%, 24.020386%)" stop-opacity="1"/>
<stop offset="0.484375" stop-color="rgb(11.05957%, 23.413086%, 23.924255%)" stop-opacity="1"/>
<stop offset="0.488281" stop-color="rgb(11.030579%, 23.303223%, 23.828125%)" stop-opacity="1"/>
<stop offset="0.492188" stop-color="rgb(11.001587%, 23.191833%, 23.730469%)" stop-opacity="1"/>
<stop offset="0.496094" stop-color="rgb(10.972595%, 23.083496%, 23.606873%)" stop-opacity="1"/>
<stop offset="0.5" stop-color="rgb(10.945129%, 22.973633%, 23.48175%)" stop-opacity="1"/>
<stop offset="0.503906" stop-color="rgb(10.916138%, 22.865295%, 23.358154%)" stop-opacity="1"/>
<stop offset="0.507813" stop-color="rgb(10.887146%, 22.756958%, 23.234558%)" stop-opacity="1"/>
<stop offset="0.511719" stop-color="rgb(10.858154%, 22.647095%, 23.138428%)" stop-opacity="1"/>
<stop offset="0.515625" stop-color="rgb(10.827637%, 22.538757%, 23.040771%)" stop-opacity="1"/>
<stop offset="0.519531" stop-color="rgb(10.797119%, 22.434998%, 22.943115%)" stop-opacity="1"/>
<stop offset="0.523438" stop-color="rgb(10.766602%, 22.329712%, 22.845459%)" stop-opacity="1"/>
<stop offset="0.527344" stop-color="rgb(10.728455%, 22.251892%, 22.732544%)" stop-opacity="1"/>
<stop offset="0.53125" stop-color="rgb(10.690308%, 22.174072%, 22.619629%)" stop-opacity="1"/>
<stop offset="0.535156" stop-color="rgb(10.655212%, 22.088623%, 22.512817%)" stop-opacity="1"/>
<stop offset="0.539063" stop-color="rgb(10.618591%, 22.003174%, 22.40448%)" stop-opacity="1"/>
<stop offset="0.542969" stop-color="rgb(10.588074%, 21.894836%, 22.309875%)" stop-opacity="1"/>
<stop offset="0.546875" stop-color="rgb(10.559082%, 21.786499%, 22.213745%)" stop-opacity="1"/>
<stop offset="0.550781" stop-color="rgb(10.522461%, 21.665955%, 22.103882%)" stop-opacity="1"/>
<stop offset="0.554688" stop-color="rgb(10.484314%, 21.54541%, 21.995544%)" stop-opacity="1"/>
<stop offset="0.558594" stop-color="rgb(10.435486%, 21.398926%, 21.858215%)" stop-opacity="1"/>
<stop offset="0.5625" stop-color="rgb(10.385132%, 21.253967%, 21.722412%)" stop-opacity="1"/>
<stop offset="0.566406" stop-color="rgb(10.340881%, 21.138%, 21.59729%)" stop-opacity="1"/>
<stop offset="0.570313" stop-color="rgb(10.295105%, 21.022034%, 21.472168%)" stop-opacity="1"/>
<stop offset="0.574219" stop-color="rgb(10.256958%, 20.94574%, 21.360779%)" stop-opacity="1"/>
<stop offset="0.578125" stop-color="rgb(10.218811%, 20.86792%, 21.250916%)" stop-opacity="1"/>
<stop offset="0.582031" stop-color="rgb(10.185242%, 20.774841%, 21.150208%)" stop-opacity="1"/>
<stop offset="0.585938" stop-color="rgb(10.151672%, 20.681763%, 21.0495%)" stop-opacity="1"/>
<stop offset="0.589844" stop-color="rgb(10.121155%, 20.576477%, 20.954895%)" stop-opacity="1"/>
<stop offset="0.59375" stop-color="rgb(10.089111%, 20.469666%, 20.860291%)" stop-opacity="1"/>
<stop offset="0.597656" stop-color="rgb(10.054016%, 20.38269%, 20.773315%)" stop-opacity="1"/>
<stop offset="0.601562" stop-color="rgb(10.017395%, 20.295715%, 20.68634%)" stop-opacity="1"/>
<stop offset="0.605469" stop-color="rgb(9.977722%, 20.217896%, 20.603943%)" stop-opacity="1"/>
<stop offset="0.609375" stop-color="rgb(9.939575%, 20.140076%, 20.521545%)" stop-opacity="1"/>
<stop offset="0.613281" stop-color="rgb(9.906006%, 20.042419%, 20.410156%)" stop-opacity="1"/>
<stop offset="0.617188" stop-color="rgb(9.873962%, 19.944763%, 20.300293%)" stop-opacity="1"/>
<stop offset="0.621094" stop-color="rgb(9.843445%, 19.841003%, 20.181274%)" stop-opacity="1"/>
<stop offset="0.625" stop-color="rgb(9.812927%, 19.737244%, 20.06073%)" stop-opacity="1"/>
<stop offset="0.628906" stop-color="rgb(9.764099%, 19.599915%, 19.929504%)" stop-opacity="1"/>
<stop offset="0.632812" stop-color="rgb(9.716797%, 19.462585%, 19.796753%)" stop-opacity="1"/>
<stop offset="0.636719" stop-color="rgb(9.664917%, 19.320679%, 19.662476%)" stop-opacity="1"/>
<stop offset="0.640625" stop-color="rgb(9.614563%, 19.178772%, 19.528198%)" stop-opacity="1"/>
<stop offset="0.644531" stop-color="rgb(9.57489%, 19.0979%, 19.444275%)" stop-opacity="1"/>
<stop offset="0.648438" stop-color="rgb(9.533691%, 19.017029%, 19.3573%)" stop-opacity="1"/>
<stop offset="0.652344" stop-color="rgb(9.495544%, 18.939209%, 19.274902%)" stop-opacity="1"/>
<stop offset="0.65625" stop-color="rgb(9.455872%, 18.861389%, 19.190979%)" stop-opacity="1"/>
<stop offset="0.660156" stop-color="rgb(9.425354%, 18.759155%, 19.073486%)" stop-opacity="1"/>
<stop offset="0.664062" stop-color="rgb(9.393311%, 18.656921%, 18.955994%)" stop-opacity="1"/>
<stop offset="0.667969" stop-color="rgb(9.361267%, 18.557739%, 18.843079%)" stop-opacity="1"/>
<stop offset="0.671875" stop-color="rgb(9.327698%, 18.458557%, 18.731689%)" stop-opacity="1"/>
<stop offset="0.675781" stop-color="rgb(9.288025%, 18.382263%, 18.649292%)" stop-opacity="1"/>
<stop offset="0.679688" stop-color="rgb(9.249878%, 18.305969%, 18.56842%)" stop-opacity="1"/>
<stop offset="0.683594" stop-color="rgb(9.220886%, 18.225098%, 18.482971%)" stop-opacity="1"/>
<stop offset="0.6875" stop-color="rgb(9.19342%, 18.1427%, 18.397522%)" stop-opacity="1"/>
<stop offset="0.691406" stop-color="rgb(9.204102%, 18.043518%, 18.299866%)" stop-opacity="1"/>
<stop offset="0.695312" stop-color="rgb(9.214783%, 17.944336%, 18.203735%)" stop-opacity="1"/>
<stop offset="0.699219" stop-color="rgb(9.208679%, 17.854309%, 18.104553%)" stop-opacity="1"/>
<stop offset="0.703125" stop-color="rgb(9.20105%, 17.762756%, 18.003845%)" stop-opacity="1"/>
<stop offset="0.707031" stop-color="rgb(9.161377%, 17.687988%, 17.89856%)" stop-opacity="1"/>
<stop offset="0.710938" stop-color="rgb(9.121704%, 17.611694%, 17.793274%)" stop-opacity="1"/>
<stop offset="0.714844" stop-color="rgb(9.075928%, 17.50946%, 17.677307%)" stop-opacity="1"/>
<stop offset="0.71875" stop-color="rgb(9.030151%, 17.405701%, 17.56134%)" stop-opacity="1"/>
<stop offset="0.722656" stop-color="rgb(8.976746%, 17.266846%, 17.428589%)" stop-opacity="1"/>
<stop offset="0.726562" stop-color="rgb(8.92334%, 17.127991%, 17.297363%)" stop-opacity="1"/>
<stop offset="0.730469" stop-color="rgb(8.880615%, 17.010498%, 17.175293%)" stop-opacity="1"/>
<stop offset="0.734375" stop-color="rgb(8.837891%, 16.891479%, 17.053223%)" stop-opacity="1"/>
<stop offset="0.738281" stop-color="rgb(8.804321%, 16.792297%, 16.938782%)" stop-opacity="1"/>
<stop offset="0.742188" stop-color="rgb(8.770752%, 16.693115%, 16.825867%)" stop-opacity="1"/>
<stop offset="0.746094" stop-color="rgb(8.758545%, 16.610718%, 16.731262%)" stop-opacity="1"/>
<stop offset="0.75" stop-color="rgb(8.746338%, 16.52832%, 16.635132%)" stop-opacity="1"/>
<stop offset="0.753906" stop-color="rgb(8.746338%, 16.456604%, 16.551208%)" stop-opacity="1"/>
<stop offset="0.757812" stop-color="rgb(8.744812%, 16.383362%, 16.465759%)" stop-opacity="1"/>
<stop offset="0.761719" stop-color="rgb(8.720398%, 16.291809%, 16.377258%)" stop-opacity="1"/>
<stop offset="0.765625" stop-color="rgb(8.694458%, 16.19873%, 16.287231%)" stop-opacity="1"/>
<stop offset="0.769531" stop-color="rgb(8.659363%, 16.099548%, 16.197205%)" stop-opacity="1"/>
<stop offset="0.773437" stop-color="rgb(8.624268%, 16.000366%, 16.107178%)" stop-opacity="1"/>
<stop offset="0.777344" stop-color="rgb(8.584595%, 15.922546%, 16.007996%)" stop-opacity="1"/>
<stop offset="0.78125" stop-color="rgb(8.544922%, 15.843201%, 15.907288%)" stop-opacity="1"/>
<stop offset="0.785156" stop-color="rgb(8.503723%, 15.768433%, 15.805054%)" stop-opacity="1"/>
<stop offset="0.789062" stop-color="rgb(8.462524%, 15.69519%, 15.704346%)" stop-opacity="1"/>
<stop offset="0.792969" stop-color="rgb(8.427429%, 15.597534%, 15.614319%)" stop-opacity="1"/>
<stop offset="0.796875" stop-color="rgb(8.392334%, 15.501404%, 15.524292%)" stop-opacity="1"/>
<stop offset="0.800781" stop-color="rgb(8.357239%, 15.403748%, 15.432739%)" stop-opacity="1"/>
<stop offset="0.804687" stop-color="rgb(8.322144%, 15.304565%, 15.341187%)" stop-opacity="1"/>
<stop offset="0.808594" stop-color="rgb(8.299255%, 15.196228%, 15.196228%)" stop-opacity="1"/>
<stop offset="0.8125" stop-color="rgb(8.273315%, 15.086365%, 15.05127%)" stop-opacity="1"/>
<stop offset="0.816406" stop-color="rgb(8.247375%, 14.979553%, 14.91394%)" stop-opacity="1"/>
<stop offset="0.820312" stop-color="rgb(8.221436%, 14.871216%, 14.778137%)" stop-opacity="1"/>
<stop offset="0.824219" stop-color="rgb(8.184814%, 14.775085%, 14.689636%)" stop-opacity="1"/>
<stop offset="0.828125" stop-color="rgb(8.149719%, 14.677429%, 14.601135%)" stop-opacity="1"/>
<stop offset="0.832031" stop-color="rgb(8.111572%, 14.585876%, 14.509583%)" stop-opacity="1"/>
<stop offset="0.835937" stop-color="rgb(8.074951%, 14.49585%, 14.41803%)" stop-opacity="1"/>
<stop offset="0.839844" stop-color="rgb(8.032227%, 14.421082%, 14.320374%)" stop-opacity="1"/>
<stop offset="0.84375" stop-color="rgb(7.991028%, 14.346313%, 14.219666%)" stop-opacity="1"/>
<stop offset="0.847656" stop-color="rgb(7.962036%, 14.266968%, 14.123535%)" stop-opacity="1"/>
<stop offset="0.851562" stop-color="rgb(7.93457%, 14.186096%, 14.027405%)" stop-opacity="1"/>
<stop offset="0.855469" stop-color="rgb(7.933044%, 14.093018%, 13.935852%)" stop-opacity="1"/>
<stop offset="0.859375" stop-color="rgb(7.931519%, 13.998413%, 13.842773%)" stop-opacity="1"/>
<stop offset="0.863281" stop-color="rgb(7.943726%, 13.916016%, 13.754272%)" stop-opacity="1"/>
<stop offset="0.867187" stop-color="rgb(7.954407%, 13.833618%, 13.665771%)" stop-opacity="1"/>
<stop offset="0.871094" stop-color="rgb(7.981873%, 13.763428%, 13.578796%)" stop-opacity="1"/>
<stop offset="0.875" stop-color="rgb(8.009338%, 13.694763%, 13.493347%)" stop-opacity="1"/>
<stop offset="0.878906" stop-color="rgb(8.02002%, 13.612366%, 13.404846%)" stop-opacity="1"/>
<stop offset="0.882813" stop-color="rgb(8.029175%, 13.529968%, 13.314819%)" stop-opacity="1"/>
<stop offset="0.886719" stop-color="rgb(8.024597%, 13.438416%, 13.224792%)" stop-opacity="1"/>
<stop offset="0.890625" stop-color="rgb(8.02002%, 13.345337%, 13.13324%)" stop-opacity="1"/>
<stop offset="0.894531" stop-color="rgb(8.01239%, 13.265991%, 13.047791%)" stop-opacity="1"/>
<stop offset="0.898438" stop-color="rgb(8.003235%, 13.186646%, 12.962341%)" stop-opacity="1"/>
<stop offset="0.902344" stop-color="rgb(7.992554%, 13.114929%, 12.88147%)" stop-opacity="1"/>
<stop offset="0.90625" stop-color="rgb(7.981873%, 13.043213%, 12.799072%)" stop-opacity="1"/>
<stop offset="0.914062" stop-color="rgb(7.98645%, 12.998962%, 12.745667%)" stop-opacity="1"/>
<stop offset="0.921875" stop-color="rgb(8.003235%, 12.918091%, 12.649536%)" stop-opacity="1"/>
<stop offset="0.929688" stop-color="rgb(8.009338%, 12.802124%, 12.524414%)" stop-opacity="1"/>
<stop offset="0.933594" stop-color="rgb(7.995605%, 12.628174%, 12.353516%)" stop-opacity="1"/>
<stop offset="0.9375" stop-color="rgb(7.98645%, 12.536621%, 12.263489%)" stop-opacity="1"/>
<stop offset="0.941406" stop-color="rgb(7.974243%, 12.463379%, 12.181091%)" stop-opacity="1"/>
<stop offset="0.945312" stop-color="rgb(7.96051%, 12.390137%, 12.098694%)" stop-opacity="1"/>
<stop offset="0.949219" stop-color="rgb(7.946777%, 12.31842%, 12.017822%)" stop-opacity="1"/>
<stop offset="0.953125" stop-color="rgb(7.931519%, 12.246704%, 11.935425%)" stop-opacity="1"/>
<stop offset="0.957031" stop-color="rgb(7.920837%, 12.156677%, 11.846924%)" stop-opacity="1"/>
<stop offset="0.960938" stop-color="rgb(7.910156%, 12.065125%, 11.756897%)" stop-opacity="1"/>
<stop offset="0.96875" stop-color="rgb(7.901001%, 11.985779%, 11.679077%)" stop-opacity="1"/>
<stop offset="1" stop-color="rgb(7.89032%, 11.904907%, 11.601257%)" stop-opacity="1"/>
</linearGradient>
</defs>
<g clip-path="url(#clip-0)">
<path fill-rule="nonzero" fill="url(#linear-pattern-0)" d="M 0 0 L 0 3304.921875 L 2749.890625 3304.921875 L 2749.890625 0 Z M 0 0 "/>
</g>
</svg>
